Boogaloo-Regular-OTF.ufo
<glyph name="exclam" format="1">
  <advance width="278"/>
  <unicode hex="0021"/>
  <outline>
    <contour>
      <point x="174" y="186" type="line"/>
      <point x="184" y="374"/>
      <point x="201" y="547"/>
      <point x="241" y="703" type="curve"/>
      <point x="95" y="731" type="line"/>
      <point x="83" y="642"/>
      <point x="76" y="552"/>
      <point x="76" y="460" type="curve" smooth="yes" name="hr01"/>
      <point x="76" y="375"/>
      <point x="83" y="287"/>
      <point x="94" y="196" type="curve"/>
    </contour>
    <contour>
      <point x="73" y="146" type="line"/>
      <point x="74" y="132"/>
      <point x="75" y="118"/>
      <point x="75" y="106" type="curve" smooth="yes"/>
      <point x="75" y="67"/>
      <point x="75" y="37"/>
      <point x="65" y="0" type="curve"/>
      <point x="184" y="-23" type="line"/>
      <point x="194" y="0"/>
      <point x="200" y="37"/>
      <point x="200" y="70" type="curve" smooth="yes" name="hr02"/>
      <point x="200" y="94"/>
      <point x="200" y="114"/>
      <point x="189" y="134" type="curve"/>
    </contour>
  </outline>
</glyph>
<glyph name="quotedbl" format="1">
  <advance width="348"/>
  <unicode hex="0022"/>
  <outline>
    <contour>
      <point x="37" y="704" type="line" name="hr00"/>
      <point x="35" y="615"/>
      <point x="33" y="534"/>
      <point x="25" y="434" type="curve"/>
      <point x="117" y="426" type="line"/>
      <point x="132" y="525"/>
      <point x="141" y="600"/>
      <point x="145" y="695" type="curve"/>
    </contour>
    <contour>
      <point x="203" y="704" type="line"/>
      <point x="201" y="615"/>
      <point x="199" y="534"/>
      <point x="191" y="434" type="curve"/>
      <point x="283" y="426" type="line"/>
      <point x="298" y="525"/>
      <point x="307" y="600"/>
      <point x="311" y="695" type="curve"/>
    </contour>
  </outline>
</glyph>
<glyph name="dollar" format="1">
  <advance width="484"/>
  <unicode hex="0024"/>
  <outline>
    <contour>
      <point x="419" y="362" type="line"/>
      <point x="434" y="393"/>
      <point x="440" y="425"/>
      <point x="440" y="467" type="curve" smooth="yes"/>
      <point x="440" y="513"/>
      <point x="393" y="591"/>
      <point x="316" y="616" type="curve"/>
      <point x="314" y="645"/>
      <point x="314" y="670"/>
      <point x="314" y="724" type="curve"/>
      <point x="214" y="732" type="line"/>
      <point x="214" y="676"/>
      <point x="216" y="648"/>
      <point x="216" y="617" type="curve"/>
      <point x="146" y="598"/>
      <point x="84" y="540"/>
      <point x="84" y="448" type="curve" smooth="yes" name="hr01"/>
      <point x="84" y="354"/>
      <point x="148" y="293"/>
      <point x="213" y="246" type="curve" smooth="yes"/>
      <point x="263" y="210"/>
      <point x="291" y="186"/>
      <point x="291" y="154" type="curve" smooth="yes"/>
      <point x="291" y="133"/>
      <point x="273" y="124"/>
      <point x="254" y="124" type="curve" smooth="yes"/>
      <point x="202" y="124"/>
      <point x="146" y="176"/>
      <point x="118" y="202" type="curve"/>
      <point x="57" y="143" type="line"/>
      <point x="83" y="100"/>
      <point x="134" y="30"/>
      <point x="212" y="11" type="curve"/>
      <point x="211" y="-34"/>
      <point x="209" y="-51"/>
      <point x="201" y="-107" type="curve"/>
      <point x="301" y="-116" type="line"/>
      <point x="310" y="-57"/>
      <point x="312" y="-36"/>
      <point x="312" y="13" type="curve"/>
      <point x="379" y="32"/>
      <point x="434" y="85"/>
      <point x="434" y="175" type="curve" smooth="yes"/>
      <point x="434" y="256"/>
      <point x="371" y="302"/>
      <point x="274" y="361" type="curve" smooth="yes"/>
      <point x="242" y="380"/>
      <point x="218" y="415"/>
      <point x="218" y="448" type="curve" smooth="yes"/>
      <point x="218" y="480"/>
      <point x="243" y="497"/>
      <point x="266" y="497" type="curve" smooth="yes"/>
      <point x="295" y="497"/>
      <point x="317" y="472"/>
      <point x="317" y="447" type="curve" smooth="yes" name="hr02"/>
      <point x="317" y="429"/>
      <point x="313" y="414"/>
      <point x="306" y="396" type="curve"/>
    </contour>
  </outline>
</glyph>
<glyph name="ampersand" format="1">
  <advance width="539"/>
  <unicode hex="0026"/>
  <outline>
    <contour>
      <point x="484" y="258" type="line"/>
      <point x="460" y="241"/>
      <point x="428" y="218"/>
      <point x="392" y="194" type="curve"/>
      <point x="362" y="227"/>
      <point x="332" y="261"/>
      <point x="305" y="296" type="curve"/>
      <point x="394" y="365"/>
      <point x="478" y="428"/>
      <point x="478" y="531" type="curve" smooth="yes"/>
      <point x="478" y="617"/>
      <point x="408" y="692"/>
      <point x="299" y="692" type="curve" smooth="yes"/>
      <point x="192" y="692"/>
      <point x="86" y="599"/>
      <point x="86" y="474" type="curve" smooth="yes"/>
      <point x="86" y="423"/>
      <point x="108" y="368"/>
      <point x="141" y="312" type="curve"/>
      <point x="73" y="259"/>
      <point x="19" y="208"/>
      <point x="19" y="140" type="curve" smooth="yes" name="hr01"/>
      <point x="19" y="49"/>
      <point x="99" y="-10"/>
      <point x="205" y="-10" type="curve" smooth="yes"/>
      <point x="249" y="-10"/>
      <point x="308" y="14"/>
      <point x="367" y="45" type="curve"/>
      <point x="406" y="7"/>
      <point x="441" y="-25"/>
      <point x="465" y="-49" type="curve"/>
      <point x="565" y="21" type="line"/>
      <point x="543" y="43"/>
      <point x="511" y="73"/>
      <point x="474" y="109" type="curve"/>
      <point x="512" y="135"/>
      <point x="546" y="159"/>
      <point x="570" y="178" type="curve"/>
    </contour>
    <contour>
      <point x="216" y="484" type="curve" smooth="yes" name="hr02"/>
      <point x="216" y="538"/>
      <point x="248" y="577"/>
      <point x="289" y="577" type="curve" smooth="yes"/>
      <point x="326" y="577"/>
      <point x="353" y="552"/>
      <point x="353" y="511" type="curve" smooth="yes"/>
      <point x="353" y="476"/>
      <point x="302" y="433"/>
      <point x="244" y="390" type="curve"/>
      <point x="226" y="424"/>
      <point x="216" y="455"/>
    </contour>
    <contour>
      <point x="205" y="100" type="curve" smooth="yes"/>
      <point x="173" y="100"/>
      <point x="149" y="122"/>
      <point x="149" y="150" type="curve" smooth="yes" name="hr03"/>
      <point x="149" y="171"/>
      <point x="172" y="196"/>
      <point x="205" y="222" type="curve"/>
      <point x="230" y="190"/>
      <point x="257" y="159"/>
      <point x="285" y="130" type="curve"/>
      <point x="251" y="112"/>
      <point x="222" y="100"/>
    </contour>
  </outline>
</glyph>
<glyph name="parenleft" format="1">
  <advance width="354"/>
  <unicode hex="0028"/>
  <outline>
    <contour>
      <point x="223" y="734" type="line" name="hr00"/>
      <point x="156" y="608"/>
      <point x="100" y="395"/>
      <point x="100" y="187" type="curve" smooth="yes"/>
      <point x="100" y="27"/>
      <point x="131" y="-125"/>
      <point x="197" y="-246" type="curve"/>
      <point x="327" y="-200" type="line"/>
      <point x="275" y="-92"/>
      <point x="235" y="51"/>
      <point x="235" y="207" type="curve" smooth="yes"/>
      <point x="235" y="388"/>
      <point x="274" y="574"/>
      <point x="319" y="680" type="curve"/>
    </contour>
  </outline>
</glyph>
<glyph name="plus" format="1">
  <advance width="833"/>
  <unicode hex="002B"/>
  <outline>
    <contour>
      <point x="718" y="360" type="line"/>
      <point x="676" y="364"/>
      <point x="630" y="365"/>
      <point x="582" y="365" type="curve" smooth="yes"/>
      <point x="549" y="365"/>
      <point x="515" y="364"/>
      <point x="480" y="363" type="curve"/>
      <point x="482" y="443"/>
      <point x="487" y="520"/>
      <point x="494" y="591" type="curve"/>
      <point x="354" y="603" type="line"/>
      <point x="347" y="527"/>
      <point x="342" y="444"/>
      <point x="339" y="356" type="curve"/>
      <point x="330" y="355"/>
      <point x="321" y="354"/>
      <point x="312" y="354" type="curve"/>
      <point x="250" y="349"/>
      <point x="188" y="345"/>
      <point x="121" y="343" type="curve" name="hr01"/>
      <point x="127" y="223" type="line"/>
      <point x="194" y="226"/>
      <point x="260" y="230"/>
      <point x="322" y="234" type="curve" smooth="yes"/>
      <point x="327" y="234"/>
      <point x="332" y="234"/>
      <point x="338" y="235" type="curve"/>
      <point x="338" y="230" type="line" smooth="yes"/>
      <point x="338" y="158"/>
      <point x="340" y="86"/>
      <point x="343" y="8" type="curve"/>
      <point x="483" y="-1" type="line"/>
      <point x="480" y="77"/>
      <point x="478" y="158"/>
      <point x="478" y="230" type="curve" smooth="yes"/>
      <point x="478" y="243" type="line"/>
      <point x="513" y="244"/>
      <point x="547" y="245"/>
      <point x="582" y="245" type="curve" smooth="yes" name="hr02"/>
      <point x="622" y="245"/>
      <point x="662" y="244"/>
      <point x="704" y="240" type="curve"/>
    </contour>
  </outline>
</glyph>
<glyph name="four" format="1">
  <advance width="484"/>
  <unicode hex="0034"/>
  <outline>
    <contour>
      <point x="398" y="-30" type="line" name="hr00"/>
      <point x="394" y="32"/>
      <point x="393" y="101"/>
      <point x="393" y="162" type="curve"/>
      <point x="445" y="162" type="line"/>
      <point x="459" y="267" type="line"/>
      <point x="395" y="273" type="line"/>
      <point x="401" y="448"/>
      <point x="425" y="636"/>
      <point x="425" y="636" type="curve"/>
      <point x="260" y="652" type="line"/>
      <point x="182" y="566"/>
      <point x="17" y="260"/>
      <point x="17" y="232" type="curve"/>
      <point x="136" y="151" type="line"/>
      <point x="187" y="157"/>
      <point x="232" y="163"/>
      <point x="273" y="163" type="curve"/>
      <point x="273" y="105"/>
      <point x="274" y="37"/>
      <point x="278" y="-20" type="curve"/>
    </contour>
    <contour>
      <point x="166" y="267" type="curve"/>
      <point x="189" y="319"/>
      <point x="245" y="429"/>
      <point x="298" y="521" type="curve"/>
      <point x="288" y="454"/>
      <point x="279" y="370"/>
      <point x="274" y="274" type="curve"/>
      <point x="238" y="274"/>
      <point x="202" y="272"/>
    </contour>
  </outline>
</glyph>
<glyph name="eight" format="1">
  <advance width="484"/>
  <unicode hex="0038"/>
  <outline>
    <contour>
      <point x="54" y="156" type="curve" smooth="yes"/>
      <point x="54" y="42"/>
      <point x="148" y="-33"/>
      <point x="255" y="-33" type="curve" smooth="yes"/>
      <point x="366" y="-33"/>
      <point x="453" y="72"/>
      <point x="453" y="163" type="curve" smooth="yes"/>
      <point x="453" y="232"/>
      <point x="412" y="284"/>
      <point x="361" y="313" type="curve"/>
      <point x="415" y="354"/>
      <point x="454" y="412"/>
      <point x="454" y="480" type="curve" smooth="yes"/>
      <point x="454" y="549"/>
      <point x="396" y="661"/>
      <point x="267" y="661" type="curve" smooth="yes"/>
      <point x="167" y="661"/>
      <point x="69" y="566"/>
      <point x="69" y="456" type="curve" smooth="yes" name="hr01"/>
      <point x="69" y="392"/>
      <point x="98" y="348"/>
      <point x="134" y="315" type="curve"/>
      <point x="92" y="277"/>
      <point x="54" y="224"/>
    </contour>
    <contour>
      <point x="333" y="153" type="curve" smooth="yes"/>
      <point x="333" y="102"/>
      <point x="292" y="77"/>
      <point x="255" y="77" type="curve" smooth="yes"/>
      <point x="212" y="77"/>
      <point x="174" y="108"/>
      <point x="174" y="156" type="curve" smooth="yes"/>
      <point x="174" y="204"/>
      <point x="209" y="238"/>
      <point x="242" y="260" type="curve"/>
      <point x="282" y="237"/>
      <point x="333" y="206"/>
    </contour>
    <contour>
      <point x="189" y="466" type="curve" smooth="yes" name="hr03"/>
      <point x="189" y="515"/>
      <point x="225" y="551"/>
      <point x="267" y="551" type="curve" smooth="yes"/>
      <point x="312" y="551"/>
      <point x="334" y="503"/>
      <point x="334" y="480" type="curve" smooth="yes"/>
      <point x="334" y="434"/>
      <point x="290" y="403"/>
      <point x="243" y="375" type="curve"/>
      <point x="214" y="393"/>
      <point x="189" y="437"/>
    </contour>
  </outline>
</glyph>
<glyph name="nine" format="1">
  <advance width="484"/>
  <unicode hex="0039"/>
  <outline>
    <contour>
      <point x="233" y="-51" type="line" name="hr00"/>
      <point x="349" y="93"/>
      <point x="460" y="261"/>
      <point x="460" y="390" type="curve" smooth="yes"/>
      <point x="460" y="592"/>
      <point x="347" y="653"/>
      <point x="266" y="653" type="curve" smooth="yes"/>
      <point x="151" y="653"/>
      <point x="44" y="528"/>
      <point x="44" y="401" type="curve" smooth="yes"/>
      <point x="44" y="301"/>
      <point x="114" y="210"/>
      <point x="220" y="210" type="curve" smooth="yes"/>
      <point x="245" y="210"/>
      <point x="270" y="218"/>
      <point x="295" y="227" type="curve"/>
      <point x="250" y="155"/>
      <point x="196" y="82"/>
      <point x="138" y="16" type="curve"/>
    </contour>
    <contour>
      <point x="230" y="320" type="curve" smooth="yes"/>
      <point x="190" y="320"/>
      <point x="164" y="359"/>
      <point x="164" y="401" type="curve" smooth="yes"/>
      <point x="164" y="472"/>
      <point x="213" y="543"/>
      <point x="266" y="543" type="curve" smooth="yes"/>
      <point x="297" y="543"/>
      <point x="340" y="510"/>
      <point x="340" y="400" type="curve" smooth="yes"/>
      <point x="340" y="389"/>
      <point x="338" y="377"/>
      <point x="336" y="365" type="curve"/>
      <point x="302" y="339"/>
      <point x="266" y="320"/>
    </contour>
  </outline>
</glyph>
<glyph name="semicolon" format="1">
  <advance width="260"/>
  <unicode hex="003B"/>
  <outline>
    <contour>
      <point x="64" y="477" type="line" name="hr00"/>
      <point x="65" y="453"/>
      <point x="65" y="427"/>
      <point x="65" y="402" type="curve" smooth="yes"/>
      <point x="65" y="365"/>
      <point x="60" y="330"/>
      <point x="56" y="296" type="curve"/>
      <point x="191" y="285" type="line"/>
      <point x="202" y="313"/>
      <point x="205" y="352"/>
      <point x="205" y="391" type="curve" smooth="yes"/>
      <point x="205" y="417"/>
      <point x="201" y="443"/>
      <point x="194" y="465" type="curve"/>
    </contour>
    <contour>
      <point x="75" y="197" type="line"/>
      <point x="68" y="96"/>
      <point x="57" y="3"/>
      <point x="38" y="-113" type="curve"/>
      <point x="130" y="-120" type="line"/>
      <point x="164" y="-29"/>
      <point x="198" y="62"/>
      <point x="208" y="153" type="curve"/>
    </contour>
  </outline>
</glyph>
<glyph name="equal" format="1">
  <advance width="833"/>
  <unicode hex="003D"/>
  <outline>
    <contour>
      <point x="720" y="461" type="line"/>
      <point x="645" y="470"/>
      <point x="558" y="472"/>
      <point x="479" y="472" type="curve" smooth="yes"/>
      <point x="347" y="472"/>
      <point x="235" y="464"/>
      <point x="123" y="464" type="curve"/>
      <point x="123" y="344" type="line"/>
      <point x="248" y="345"/>
      <point x="369" y="352"/>
      <point x="489" y="352" type="curve" smooth="yes"/>
      <point x="567" y="352"/>
      <point x="636" y="350"/>
      <point x="702" y="341" type="curve"/>
    </contour>
    <contour>
      <point x="720" y="242" type="line"/>
      <point x="645" y="251"/>
      <point x="558" y="253"/>
      <point x="479" y="253" type="curve" smooth="yes"/>
      <point x="347" y="253"/>
      <point x="235" y="245"/>
      <point x="123" y="245" type="curve"/>
      <point x="123" y="125" type="line"/>
      <point x="248" y="126"/>
      <point x="369" y="133"/>
      <point x="489" y="133" type="curve" smooth="yes"/>
      <point x="567" y="133"/>
      <point x="636" y="131"/>
      <point x="702" y="122" type="curve" name="hr01"/>
    </contour>
  </outline>
</glyph>
<glyph name="at" format="1">
  <advance width="834"/>
  <unicode hex="0040"/>
  <outline>
    <contour>
      <point x="498" y="-49" type="line"/>
      <point x="470" y="-61"/>
      <point x="441" y="-68"/>
      <point x="413" y="-68" type="curve" smooth="yes"/>
      <point x="272" y="-68"/>
      <point x="142" y="28"/>
      <point x="142" y="257" type="curve" smooth="yes"/>
      <point x="142" y="491"/>
      <point x="278" y="639"/>
      <point x="426" y="639" type="curve" smooth="yes"/>
      <point x="564" y="639"/>
      <point x="692" y="546"/>
      <point x="692" y="315" type="curve" smooth="yes"/>
      <point x="692" y="240"/>
      <point x="664" y="162"/>
      <point x="607" y="162" type="curve" smooth="yes"/>
      <point x="590" y="162"/>
      <point x="572" y="174"/>
      <point x="566" y="204" type="curve"/>
      <point x="572" y="315"/>
      <point x="573" y="342"/>
      <point x="573" y="502" type="curve"/>
      <point x="456" y="512" type="line"/>
      <point x="457" y="501"/>
      <point x="458" y="492"/>
      <point x="458" y="482" type="curve"/>
      <point x="429" y="496"/>
      <point x="399" y="506"/>
      <point x="363" y="506" type="curve" smooth="yes"/>
      <point x="292" y="506"/>
      <point x="234" y="344"/>
      <point x="234" y="234" type="curve" smooth="yes"/>
      <point x="234" y="142"/>
      <point x="261" y="71"/>
      <point x="371" y="71" type="curve" smooth="yes" name="hr01"/>
      <point x="411" y="71"/>
      <point x="444" y="107"/>
      <point x="474" y="167" type="curve"/>
      <point x="488" y="94"/>
      <point x="541" y="59"/>
      <point x="600" y="59" type="curve" smooth="yes" name="hr02"/>
      <point x="712" y="59"/>
      <point x="800" y="166"/>
      <point x="800" y="312" type="curve" smooth="yes"/>
      <point x="800" y="605"/>
      <point x="620" y="726"/>
      <point x="425" y="726" type="curve" smooth="yes"/>
      <point x="221" y="726"/>
      <point x="34" y="545"/>
      <point x="34" y="260" type="curve" smooth="yes"/>
      <point x="34" y="-35"/>
      <point x="216" y="-154"/>
      <point x="413" y="-154" type="curve" smooth="yes"/>
      <point x="452" y="-154"/>
      <point x="492" y="-145"/>
      <point x="531" y="-129" type="curve"/>
    </contour>
    <contour>
      <point x="460" y="313" type="line"/>
      <point x="435" y="232"/>
      <point x="402" y="179"/>
      <point x="385" y="179" type="curve" smooth="yes" name="hr03"/>
      <point x="358" y="179"/>
      <point x="351" y="203"/>
      <point x="351" y="234" type="curve" smooth="yes"/>
      <point x="351" y="304"/>
      <point x="376" y="408"/>
      <point x="412" y="408" type="curve" smooth="yes"/>
      <point x="428" y="408"/>
      <point x="445" y="402"/>
      <point x="461" y="389" type="curve"/>
    </contour>
  </outline>
</glyph>
<glyph name="B" format="1">
  <advance width="523"/>
  <unicode hex="0042"/>
  <outline>
    <contour>
      <point x="73" y="665" type="curve"/>
      <point x="79" y="571"/>
      <point x="83" y="481"/>
      <point x="83" y="376" type="curve" smooth="yes"/>
      <point x="83" y="260"/>
      <point x="77" y="122"/>
      <point x="69" y="-1" type="curve" name="hr01"/>
      <point x="205" y="-13" type="line" smooth="yes"/>
      <point x="216" y="-14"/>
      <point x="227" y="-15"/>
      <point x="240" y="-15" type="curve" smooth="yes"/>
      <point x="358" y="-15"/>
      <point x="503" y="81"/>
      <point x="503" y="193" type="curve" smooth="yes"/>
      <point x="503" y="279"/>
      <point x="454" y="323"/>
      <point x="387" y="350" type="curve"/>
      <point x="454" y="385"/>
      <point x="511" y="440"/>
      <point x="511" y="526" type="curve" smooth="yes"/>
      <point x="511" y="626"/>
      <point x="409" y="701"/>
      <point x="286" y="701" type="curve" smooth="yes"/>
      <point x="220" y="701"/>
      <point x="141" y="686"/>
    </contour>
    <contour>
      <point x="276" y="583" type="curve" smooth="yes"/>
      <point x="330" y="583"/>
      <point x="376" y="553"/>
      <point x="376" y="512" type="curve" smooth="yes"/>
      <point x="376" y="449"/>
      <point x="268" y="394"/>
      <point x="216" y="390" type="curve"/>
      <point x="216" y="449"/>
      <point x="214" y="511"/>
      <point x="212" y="571" type="curve"/>
      <point x="234" y="578"/>
      <point x="255" y="583"/>
    </contour>
    <contour>
      <point x="369" y="193" type="curve" smooth="yes"/>
      <point x="369" y="147"/>
      <point x="306" y="107"/>
      <point x="254" y="107" type="curve" smooth="yes"/>
      <point x="237" y="107"/>
      <point x="223" y="108"/>
      <point x="211" y="110" type="curve"/>
      <point x="213" y="170"/>
      <point x="214" y="229"/>
      <point x="215" y="287" type="curve"/>
      <point x="305" y="279"/>
      <point x="369" y="242"/>
    </contour>
  </outline>
</glyph>
<glyph name="F" format="1">
  <advance width="422"/>
  <unicode hex="0046"/>
  <outline>
    <contour>
      <point x="421" y="688" type="line"/>
      <point x="337" y="688"/>
      <point x="225" y="683"/>
      <point x="87" y="662" type="curve"/>
      <point x="79" y="549"/>
      <point x="71" y="367"/>
      <point x="71" y="249" type="curve" smooth="yes" name="hr01"/>
      <point x="71" y="168"/>
      <point x="72" y="77"/>
      <point x="73" y="-4" type="curve"/>
      <point x="208" y="-19" type="line"/>
      <point x="205" y="70"/>
      <point x="204" y="169"/>
      <point x="204" y="256" type="curve"/>
      <point x="271" y="264"/>
      <point x="339" y="268"/>
      <point x="405" y="270" type="curve"/>
      <point x="385" y="380" type="line"/>
      <point x="321" y="380"/>
      <point x="265" y="373"/>
      <point x="205" y="365" type="curve"/>
      <point x="207" y="415"/>
      <point x="208" y="508"/>
      <point x="211" y="558" type="curve"/>
      <point x="281" y="563"/>
      <point x="355" y="565"/>
      <point x="421" y="565" type="curve"/>
    </contour>
  </outline>
</glyph>
<glyph name="I" format="1">
  <advance width="289"/>
  <unicode hex="0049"/>
  <outline>
    <contour>
      <point x="98" y="704" type="line"/>
      <point x="92" y="581"/>
      <point x="89" y="476"/>
      <point x="89" y="368" type="curve" smooth="yes"/>
      <point x="89" y="249"/>
      <point x="93" y="128"/>
      <point x="102" y="-13" type="curve" name="hr01"/>
      <point x="237" y="-25" type="line"/>
      <point x="228" y="88"/>
      <point x="224" y="219"/>
      <point x="224" y="351" type="curve" smooth="yes"/>
      <point x="224" y="469"/>
      <point x="227" y="587"/>
      <point x="233" y="692" type="curve" name="hr02"/>
    </contour>
  </outline>
</glyph>
<glyph name="K" format="1">
  <advance width="515"/>
  <unicode hex="004B"/>
  <outline>
    <contour>
      <point x="387" y="706" type="line" name="hr00"/>
      <point x="352" y="630"/>
      <point x="277" y="491"/>
      <point x="197" y="359" type="curve"/>
      <point x="197" y="475"/>
      <point x="200" y="579"/>
      <point x="207" y="666" type="curve"/>
      <point x="70" y="679" type="line"/>
      <point x="63" y="584"/>
      <point x="60" y="455"/>
      <point x="60" y="325" type="curve" smooth="yes"/>
      <point x="60" y="219"/>
      <point x="62" y="115"/>
      <point x="67" y="6" type="curve"/>
      <point x="204" y="-9" type="line"/>
      <point x="198" y="88"/>
      <point x="197" y="191"/>
      <point x="197" y="287" type="curve"/>
      <point x="262" y="167"/>
      <point x="336" y="59"/>
      <point x="419" y="-22" type="curve"/>
      <point x="511" y="82" type="line"/>
      <point x="440" y="144"/>
      <point x="374" y="233"/>
      <point x="318" y="322" type="curve"/>
      <point x="397" y="444"/>
      <point x="474" y="578"/>
      <point x="513" y="656" type="curve"/>
    </contour>
  </outline>
</glyph>
<glyph name="M" format="1">
  <advance width="650"/>
  <unicode hex="004D"/>
  <outline>
    <contour>
      <point x="499" y="521" type="line"/>
      <point x="495" y="346"/>
      <point x="494" y="156"/>
      <point x="477" y="-13" type="curve"/>
      <point x="614" y="-26" type="line"/>
      <point x="623" y="85"/>
      <point x="623" y="208"/>
      <point x="623" y="325" type="curve" smooth="yes"/>
      <point x="623" y="453"/>
      <point x="618" y="563"/>
      <point x="615" y="679" type="curve"/>
      <point x="426" y="696" type="line"/>
      <point x="399" y="561"/>
      <point x="368" y="433"/>
      <point x="327" y="300" type="curve"/>
      <point x="304" y="434"/>
      <point x="283" y="545"/>
      <point x="253" y="653" type="curve"/>
      <point x="65" y="668" type="line"/>
      <point x="52" y="553"/>
      <point x="48" y="450"/>
      <point x="48" y="345" type="curve" smooth="yes"/>
      <point x="48" y="235"/>
      <point x="52" y="124"/>
      <point x="56" y="-6" type="curve"/>
      <point x="188" y="-18" type="line"/>
      <point x="177" y="184"/>
      <point x="172" y="351"/>
      <point x="167" y="534" type="curve" name="hr01"/>
      <point x="175" y="533" type="line"/>
      <point x="216" y="357"/>
      <point x="235" y="234"/>
      <point x="279" y="60" type="curve"/>
      <point x="370" y="52" type="line"/>
      <point x="427" y="239"/>
      <point x="455" y="379"/>
      <point x="491" y="522" type="curve"/>
    </contour>
  </outline>
</glyph>
<glyph name="O" format="1">
  <advance width="521"/>
  <unicode hex="004F"/>
  <outline>
    <contour>
      <point x="34" y="310" type="curve" smooth="yes" name="hr00"/>
      <point x="34" y="65"/>
      <point x="144" y="-34"/>
      <point x="263" y="-34" type="curve" smooth="yes"/>
      <point x="380" y="-34"/>
      <point x="500" y="120"/>
      <point x="500" y="362" type="curve" smooth="yes"/>
      <point x="500" y="606"/>
      <point x="392" y="706"/>
      <point x="275" y="706" type="curve" smooth="yes"/>
      <point x="149" y="706"/>
      <point x="34" y="552"/>
    </contour>
    <contour>
      <point x="167" y="310" type="curve" smooth="yes"/>
      <point x="167" y="479"/>
      <point x="219" y="587"/>
      <point x="275" y="587" type="curve" smooth="yes"/>
      <point x="323" y="587"/>
      <point x="367" y="522"/>
      <point x="367" y="362" type="curve" smooth="yes"/>
      <point x="367" y="192"/>
      <point x="314" y="84"/>
      <point x="263" y="84" type="curve" smooth="yes"/>
      <point x="213" y="84"/>
      <point x="167" y="150"/>
    </contour>
  </outline>
</glyph>
<glyph name="Q" format="1">
  <advance width="521"/>
  <unicode hex="0051"/>
  <outline>
    <contour>
      <point x="34" y="310" type="curve" smooth="yes" name="hr00"/>
      <point x="34" y="65"/>
      <point x="144" y="-34"/>
      <point x="263" y="-34" type="curve" smooth="yes"/>
      <point x="287" y="-34"/>
      <point x="311" y="-27"/>
      <point x="335" y="-14" type="curve"/>
      <point x="352" y="-40"/>
      <point x="371" y="-64"/>
      <point x="389" y="-86" type="curve"/>
      <point x="518" y="-38" type="line"/>
      <point x="479" y="-4"/>
      <point x="447" y="29"/>
      <point x="420" y="65" type="curve"/>
      <point x="467" y="134"/>
      <point x="500" y="236"/>
      <point x="500" y="362" type="curve" smooth="yes"/>
      <point x="500" y="606"/>
      <point x="392" y="706"/>
      <point x="275" y="706" type="curve" smooth="yes"/>
      <point x="149" y="706"/>
      <point x="34" y="552"/>
    </contour>
    <contour>
      <point x="167" y="310" type="curve" smooth="yes"/>
      <point x="167" y="479"/>
      <point x="219" y="587"/>
      <point x="275" y="587" type="curve" smooth="yes"/>
      <point x="323" y="587"/>
      <point x="367" y="522"/>
      <point x="367" y="362" type="curve" smooth="yes"/>
      <point x="367" y="283"/>
      <point x="355" y="217"/>
      <point x="338" y="169" type="curve"/>
      <point x="246" y="176" type="line"/>
      <point x="252" y="146"/>
      <point x="262" y="116"/>
      <point x="276" y="86" type="curve"/>
      <point x="272" y="85"/>
      <point x="267" y="84"/>
      <point x="263" y="84" type="curve" smooth="yes"/>
      <point x="213" y="84"/>
      <point x="167" y="150"/>
    </contour>
  </outline>
</glyph>
<glyph name="T" format="1">
  <advance width="387"/>
  <unicode hex="0054"/>
  <outline>
    <contour>
      <point x="271" y="-13" type="line" name="hr00"/>
      <point x="269" y="99"/>
      <point x="267" y="214"/>
      <point x="267" y="334" type="curve" smooth="yes"/>
      <point x="267" y="427"/>
      <point x="269" y="499"/>
      <point x="273" y="595" type="curve"/>
      <point x="342" y="601"/>
      <point x="397" y="604"/>
      <point x="397" y="604" type="curve"/>
      <point x="378" y="715" type="line"/>
      <point x="378" y="715"/>
      <point x="284" y="712"/>
      <point x="191" y="705" type="curve" smooth="yes"/>
      <point x="95" y="697"/>
      <point x="-3" y="680"/>
      <point x="-3" y="680" type="curve"/>
      <point x="19" y="564" type="line"/>
      <point x="19" y="564"/>
      <point x="73" y="573"/>
      <point x="141" y="581" type="curve"/>
      <point x="136" y="462"/>
      <point x="135" y="416"/>
      <point x="135" y="334" type="curve" smooth="yes"/>
      <point x="135" y="221"/>
      <point x="139" y="104"/>
      <point x="145" y="-2" type="curve"/>
    </contour>
  </outline>
</glyph>
<glyph name="V" format="1">
  <advance width="475"/>
  <unicode hex="0056"/>
  <outline>
    <contour>
      <point x="21" y="680" type="line" name="hr00"/>
      <point x="63" y="446"/>
      <point x="117" y="226"/>
      <point x="180" y="4" type="curve"/>
      <point x="295" y="-6" type="line"/>
      <point x="374" y="214"/>
      <point x="451" y="485"/>
      <point x="494" y="705" type="curve"/>
      <point x="362" y="716" type="line"/>
      <point x="333" y="544"/>
      <point x="293" y="360"/>
      <point x="249" y="190" type="curve"/>
      <point x="245" y="189" type="line"/>
      <point x="199" y="375"/>
      <point x="169" y="544"/>
      <point x="150" y="668" type="curve"/>
    </contour>
  </outline>
</glyph>
<glyph name="X" format="1">
  <advance width="463"/>
  <unicode hex="0058"/>
  <outline>
    <contour>
      <point x="23" y="35" type="curve" name="hr00"/>
      <point x="128" y="-30" type="line"/>
      <point x="151" y="40"/>
      <point x="189" y="125"/>
      <point x="233" y="220" type="curve"/>
      <point x="264" y="135"/>
      <point x="295" y="57"/>
      <point x="317" y="6" type="curve"/>
      <point x="452" y="-8" type="line"/>
      <point x="417" y="68"/>
      <point x="359" y="195"/>
      <point x="306" y="325" type="curve"/>
      <point x="362" y="431"/>
      <point x="425" y="538"/>
      <point x="478" y="617" type="curve"/>
      <point x="381" y="700" type="line"/>
      <point x="337" y="625"/>
      <point x="287" y="534"/>
      <point x="239" y="437" type="curve"/>
      <point x="215" y="524"/>
      <point x="198" y="590"/>
      <point x="189" y="655" type="curve"/>
      <point x="50" y="667" type="line"/>
      <point x="72" y="567"/>
      <point x="105" y="466"/>
      <point x="163" y="336" type="curve"/>
      <point x="104" y="224"/>
      <point x="61" y="128"/>
    </contour>
  </outline>
</glyph>
<glyph name="backslash" format="1">
  <advance width="410"/>
  <unicode hex="005C"/>
  <outline>
    <contour>
      <point x="340" y="-83" type="line" name="hr00"/>
      <point x="245" y="141"/>
      <point x="123" y="493"/>
      <point x="-2" y="684" type="curve"/>
      <point x="86" y="731" type="line"/>
      <point x="226" y="480"/>
      <point x="339" y="173"/>
      <point x="440" y="-73" type="curve"/>
    </contour>
  </outline>
</glyph>
<glyph name="asciicircum" format="1">
  <advance width="1000"/>
  <unicode hex="005E"/>
  <outline>
    <contour>
      <point x="452" y="742" type="line" name="hr00"/>
      <point x="345" y="637"/>
      <point x="250" y="526"/>
      <point x="186" y="391" type="curve"/>
      <point x="307" y="355" type="line"/>
      <point x="362" y="457"/>
      <point x="428" y="537"/>
      <point x="500" y="614" type="curve"/>
      <point x="563" y="512"/>
      <point x="626" y="435"/>
      <point x="692" y="360" type="curve"/>
      <point x="827" y="395" type="line"/>
      <point x="745" y="479"/>
      <point x="647" y="595"/>
      <point x="561" y="731" type="curve"/>
    </contour>
  </outline>
</glyph>
<glyph name="underscore" format="1">
  <advance width="500"/>
  <unicode hex="005F"/>
  <outline>
    <contour>
      <point x="501" y="-123" type="line"/>
      <point x="426" y="-114"/>
      <point x="339" y="-112"/>
      <point x="260" y="-112" type="curve" smooth="yes"/>
      <point x="166" y="-112"/>
      <point x="84" y="-120"/>
      <point x="0" y="-120" type="curve"/>
      <point x="0" y="-230" type="line"/>
      <point x="95" y="-230"/>
      <point x="178" y="-222"/>
      <point x="270" y="-222" type="curve" smooth="yes"/>
      <point x="348" y="-222"/>
      <point x="417" y="-222"/>
      <point x="483" y="-233" type="curve" name="hr01"/>
    </contour>
  </outline>
</glyph>
<glyph name="grave" format="1">
  <advance width="500"/>
  <unicode hex="0060"/>
  <outline>
    <contour>
      <point x="323" y="572" type="line" name="hr00"/>
      <point x="265" y="610"/>
      <point x="208" y="647"/>
      <point x="139" y="677" type="curve"/>
      <point x="85" y="588" type="line"/>
      <point x="148" y="573"/>
      <point x="210" y="550"/>
      <point x="278" y="515" type="curve"/>
    </contour>
  </outline>
</glyph>
<glyph name="a" format="1">
  <advance width="390"/>
  <unicode hex="0061"/>
  <outline>
    <contour>
      <point x="138" y="286" type="line"/>
      <point x="146" y="326"/>
      <point x="168" y="373"/>
      <point x="195" y="373" type="curve" smooth="yes"/>
      <point x="229" y="373"/>
      <point x="233" y="328"/>
      <point x="233" y="294" type="curve" smooth="yes"/>
      <point x="233" y="267" type="line"/>
      <point x="132" y="265"/>
      <point x="33" y="203"/>
      <point x="33" y="110" type="curve" smooth="yes"/>
      <point x="33" y="38"/>
      <point x="78" y="-10"/>
      <point x="153" y="-10" type="curve" smooth="yes"/>
      <point x="185" y="-10"/>
      <point x="216" y="2"/>
      <point x="242" y="17" type="curve"/>
      <point x="250" y="-15" type="line"/>
      <point x="334" y="-22" type="line" name="hr01"/>
      <point x="341" y="85"/>
      <point x="346" y="189"/>
      <point x="346" y="280" type="curve" smooth="yes" name="hr02"/>
      <point x="346" y="385"/>
      <point x="313" y="482"/>
      <point x="207" y="482" type="curve" smooth="yes"/>
      <point x="118" y="482"/>
      <point x="64" y="388"/>
      <point x="46" y="295" type="curve"/>
    </contour>
    <contour>
      <point x="228" y="90" type="line"/>
      <point x="206" y="81"/>
      <point x="188" y="78"/>
      <point x="173" y="78" type="curve" smooth="yes"/>
      <point x="150" y="78"/>
      <point x="135" y="90"/>
      <point x="135" y="110" type="curve" smooth="yes"/>
      <point x="135" y="134"/>
      <point x="161" y="168"/>
      <point x="230" y="174" type="curve"/>
    </contour>
  </outline>
</glyph>
<glyph name="d" format="1">
  <advance width="410"/>
  <unicode hex="0064"/>
  <outline>
    <contour>
      <point x="248" y="734" type="line"/>
      <point x="250" y="675"/>
      <point x="251" y="625"/>
      <point x="251" y="577" type="curve" smooth="yes"/>
      <point x="251" y="534"/>
      <point x="250" y="494"/>
      <point x="250" y="453" type="curve"/>
      <point x="221" y="467"/>
      <point x="191" y="477"/>
      <point x="155" y="477" type="curve" smooth="yes"/>
      <point x="84" y="477"/>
      <point x="26" y="303"/>
      <point x="26" y="185" type="curve" smooth="yes"/>
      <point x="26" y="81"/>
      <point x="53" y="2"/>
      <point x="163" y="2" type="curve" smooth="yes"/>
      <point x="199" y="2"/>
      <point x="229" y="34"/>
      <point x="256" y="88" type="curve"/>
      <point x="259" y="34"/>
      <point x="262" y="-6"/>
      <point x="262" y="-6" type="curve"/>
      <point x="351" y="-14" type="line" name="hr01"/>
      <point x="361" y="170"/>
      <point x="367" y="338"/>
      <point x="367" y="520" type="curve" smooth="yes" name="hr02"/>
      <point x="367" y="586"/>
      <point x="367" y="653"/>
      <point x="365" y="724" type="curve"/>
    </contour>
    <contour>
      <point x="252" y="264" type="line"/>
      <point x="227" y="171"/>
      <point x="194" y="110"/>
      <point x="177" y="110" type="curve" smooth="yes"/>
      <point x="150" y="110"/>
      <point x="143" y="142"/>
      <point x="143" y="185" type="curve" smooth="yes"/>
      <point x="143" y="263"/>
      <point x="168" y="379"/>
      <point x="204" y="379" type="curve" smooth="yes"/>
      <point x="220" y="379"/>
      <point x="237" y="372"/>
      <point x="253" y="360" type="curve"/>
    </contour>
  </outline>
</glyph>
<glyph name="f" format="1">
  <advance width="287"/>
  <unicode hex="0066"/>
  <outline>
    <contour>
      <point x="36" y="300" type="line"/>
      <point x="46" y="303"/>
      <point x="59" y="305"/>
      <point x="72" y="307" type="curve"/>
      <point x="73" y="231"/>
      <point x="75" y="171"/>
      <point x="77" y="102" type="curve" smooth="yes"/>
      <point x="78" y="70"/>
      <point x="81" y="36"/>
      <point x="83" y="-5" type="curve"/>
      <point x="200" y="-17" type="line"/>
      <point x="198" y="28"/>
      <point x="195" y="71"/>
      <point x="194" y="106" type="curve" smooth="yes"/>
      <point x="191" y="180"/>
      <point x="189" y="241"/>
      <point x="189" y="323" type="curve"/>
      <point x="228" y="328"/>
      <point x="266" y="328"/>
      <point x="297" y="328" type="curve" name="hr01"/>
      <point x="297" y="421" type="line"/>
      <point x="265" y="421"/>
      <point x="228" y="419"/>
      <point x="188" y="416" type="curve" name="hr02"/>
      <point x="188" y="445" type="line" smooth="yes"/>
      <point x="188" y="553"/>
      <point x="200" y="615"/>
      <point x="218" y="615" type="curve" smooth="yes"/>
      <point x="240" y="615"/>
      <point x="253" y="571"/>
      <point x="253" y="503" type="curve"/>
      <point x="346" y="493" type="line"/>
      <point x="346" y="641"/>
      <point x="301" y="735"/>
      <point x="218" y="735" type="curve" smooth="yes" name="hr03"/>
      <point x="131" y="735"/>
      <point x="71" y="628"/>
      <point x="71" y="445" type="curve" smooth="yes"/>
      <point x="71" y="401" type="line"/>
      <point x="49" y="397"/>
      <point x="30" y="394"/>
      <point x="15" y="390" type="curve"/>
    </contour>
  </outline>
</glyph>
<glyph name="g" format="1">
  <advance width="404"/>
  <unicode hex="0067"/>
  <outline>
    <contour>
      <point x="193" y="-134" type="curve" smooth="yes" name="hr00"/>
      <point x="150" y="-134"/>
      <point x="121" y="-95"/>
      <point x="102" y="-58" type="curve"/>
      <point x="18" y="-94" type="line"/>
      <point x="52" y="-162"/>
      <point x="118" y="-242"/>
      <point x="208" y="-242" type="curve" smooth="yes"/>
      <point x="336" y="-242"/>
      <point x="369" y="-20"/>
      <point x="369" y="148" type="curve" smooth="yes"/>
      <point x="369" y="289"/>
      <point x="375" y="378"/>
      <point x="382" y="413" type="curve"/>
      <point x="312" y="423" type="line"/>
      <point x="284" y="450"/>
      <point x="244" y="474"/>
      <point x="196" y="474" type="curve" smooth="yes"/>
      <point x="123" y="474"/>
      <point x="27" y="312"/>
      <point x="27" y="147" type="curve" smooth="yes"/>
      <point x="27" y="37"/>
      <point x="83" y="-8"/>
      <point x="150" y="-8" type="curve" smooth="yes"/>
      <point x="195" y="-8"/>
      <point x="231" y="31"/>
      <point x="262" y="87" type="curve"/>
      <point x="262" y="-35"/>
      <point x="235" y="-134"/>
    </contour>
    <contour>
      <point x="265" y="265" type="line"/>
      <point x="246" y="150"/>
      <point x="190" y="84"/>
      <point x="174" y="84" type="curve" smooth="yes"/>
      <point x="159" y="84"/>
      <point x="145" y="103"/>
      <point x="145" y="147" type="curve" smooth="yes"/>
      <point x="145" y="259"/>
      <point x="189" y="372"/>
      <point x="221" y="372" type="curve" smooth="yes"/>
      <point x="238" y="372"/>
      <point x="252" y="357"/>
      <point x="267" y="341" type="curve"/>
    </contour>
  </outline>
</glyph>
<glyph name="i" format="1">
  <advance width="236"/>
  <unicode hex="0069"/>
  <outline>
    <contour>
      <point x="69" y="477" type="line" name="hr00"/>
      <point x="69" y="-3" type="line"/>
      <point x="183" y="-14" type="line"/>
      <point x="183" y="466" type="line"/>
    </contour>
    <contour>
      <point x="77" y="653" type="line"/>
      <point x="67" y="542" type="line"/>
      <point x="179" y="528" type="line"/>
      <point x="189" y="640" type="line"/>
    </contour>
  </outline>
</glyph>
<glyph name="o" format="1">
  <advance width="368"/>
  <unicode hex="006F"/>
  <outline>
    <contour>
      <point x="141" y="180" type="curve" smooth="yes" name="hr00"/>
      <point x="141" y="248"/>
      <point x="161" y="380"/>
      <point x="201" y="380" type="curve" smooth="yes"/>
      <point x="234" y="380"/>
      <point x="243" y="313"/>
      <point x="243" y="262" type="curve" smooth="yes"/>
      <point x="243" y="179"/>
      <point x="222" y="67"/>
      <point x="191" y="67" type="curve" smooth="yes"/>
      <point x="166" y="67"/>
      <point x="141" y="89"/>
    </contour>
    <contour>
      <point x="24" y="189" type="curve" smooth="yes"/>
      <point x="24" y="17"/>
      <point x="105" y="-26"/>
      <point x="191" y="-26" type="curve" smooth="yes"/>
      <point x="306" y="-26"/>
      <point x="360" y="122"/>
      <point x="360" y="252" type="curve" smooth="yes"/>
      <point x="360" y="347"/>
      <point x="325" y="473"/>
      <point x="201" y="473" type="curve" smooth="yes"/>
      <point x="70" y="473"/>
      <point x="24" y="297"/>
    </contour>
  </outline>
</glyph>
<glyph name="t" format="1">
  <advance width="287"/>
  <unicode hex="0074"/>
  <outline>
    <contour>
      <point x="36" y="309" type="line"/>
      <point x="53" y="311"/>
      <point x="73" y="314"/>
      <point x="93" y="314" type="curve"/>
      <point x="91" y="219"/>
      <point x="90" y="116"/>
      <point x="90" y="-3" type="curve"/>
      <point x="208" y="-14" type="line"/>
      <point x="208" y="115"/>
      <point x="208" y="222"/>
      <point x="211" y="322" type="curve"/>
      <point x="237" y="323"/>
      <point x="262" y="323"/>
      <point x="285" y="323" type="curve" name="hr01"/>
      <point x="285" y="418" type="line"/>
      <point x="263" y="418"/>
      <point x="239" y="418"/>
      <point x="214" y="417" type="curve"/>
      <point x="216" y="481"/>
      <point x="219" y="544"/>
      <point x="223" y="609" type="curve" name="hr02"/>
      <point x="104" y="620" type="line"/>
      <point x="101" y="549"/>
      <point x="98" y="478"/>
      <point x="96" y="404" type="curve"/>
      <point x="69" y="400"/>
      <point x="43" y="396"/>
      <point x="21" y="391" type="curve"/>
    </contour>
  </outline>
</glyph>
<glyph name="y" format="1">
  <advance width="376"/>
  <unicode hex="0079"/>
  <outline>
    <contour>
      <point x="287" y="501" type="line" name="hr00"/>
      <point x="254" y="387"/>
      <point x="225" y="268"/>
      <point x="195" y="130" type="curve"/>
      <point x="170" y="227"/>
      <point x="156" y="330"/>
      <point x="147" y="444" type="curve"/>
      <point x="35" y="455" type="line"/>
      <point x="49" y="295"/>
      <point x="83" y="130"/>
      <point x="156" y="-9" type="curve"/>
      <point x="138" y="-77"/>
      <point x="119" y="-149"/>
      <point x="103" y="-227" type="curve"/>
      <point x="213" y="-237" type="line"/>
      <point x="264" y="13"/>
      <point x="323" y="260"/>
      <point x="383" y="445" type="curve"/>
    </contour>
  </outline>
</glyph>
<glyph name="braceleft" format="1">
  <advance width="500"/>
  <unicode hex="007B"/>
  <outline>
    <contour>
      <point x="187" y="245" type="curve"/>
      <point x="248" y="278"/>
      <point x="273" y="321"/>
      <point x="273" y="368" type="curve" smooth="yes"/>
      <point x="273" y="411"/>
      <point x="256" y="459"/>
      <point x="256" y="498" type="curve" smooth="yes" name="hr01"/>
      <point x="256" y="576"/>
      <point x="294" y="619"/>
      <point x="385" y="634" type="curve"/>
      <point x="385" y="734" type="line"/>
      <point x="227" y="727"/>
      <point x="126" y="636"/>
      <point x="126" y="518" type="curve" smooth="yes"/>
      <point x="126" y="468"/>
      <point x="143" y="413"/>
      <point x="143" y="368" type="curve" smooth="yes" name="hr02"/>
      <point x="143" y="323"/>
      <point x="126" y="291"/>
      <point x="52" y="289" type="curve"/>
      <point x="67" y="180" type="line"/>
      <point x="129" y="178"/>
      <point x="143" y="150"/>
      <point x="143" y="111" type="curve" smooth="yes"/>
      <point x="143" y="63"/>
      <point x="121" y="5"/>
      <point x="121" y="-49" type="curve" smooth="yes"/>
      <point x="121" y="-156"/>
      <point x="206" y="-238"/>
      <point x="340" y="-245" type="curve"/>
      <point x="360" y="-130" type="line"/>
      <point x="292" y="-121"/>
      <point x="251" y="-88"/>
      <point x="251" y="-34" type="curve" smooth="yes"/>
      <point x="251" y="12"/>
      <point x="273" y="70"/>
      <point x="273" y="121" type="curve" smooth="yes" name="hr03"/>
      <point x="273" y="168"/>
      <point x="248" y="212"/>
    </contour>
  </outline>
</glyph>
<glyph name="asciitilde" format="1">
  <advance width="833"/>
  <unicode hex="007E"/>
  <outline>
    <contour>
      <point x="197" y="203" type="line"/>
      <point x="207" y="240"/>
      <point x="242" y="274"/>
      <point x="278" y="274" type="curve" smooth="yes"/>
      <point x="361" y="274"/>
      <point x="422" y="224"/>
      <point x="538" y="224" type="curve" smooth="yes"/>
      <point x="651" y="224"/>
      <point x="729" y="290"/>
      <point x="748" y="400" type="curve"/>
      <point x="660" y="407" type="line"/>
      <point x="629" y="373"/>
      <point x="581" y="350"/>
      <point x="520" y="350" type="curve" smooth="yes"/>
      <point x="440" y="350"/>
      <point x="373" y="392"/>
      <point x="271" y="392" type="curve" smooth="yes" name="hr01"/>
      <point x="179" y="392"/>
      <point x="100" y="294"/>
      <point x="85" y="214" type="curve"/>
    </contour>
  </outline>
</glyph>
<glyph name="cent" format="1">
  <advance width="484"/>
  <unicode hex="00A2"/>
  <outline>
    <contour>
      <point x="398" y="345" type="line"/>
      <point x="407" y="359"/>
      <point x="407" y="376"/>
      <point x="407" y="395" type="curve" smooth="yes"/>
      <point x="407" y="460"/>
      <point x="376" y="535"/>
      <point x="318" y="563" type="curve"/>
      <point x="316" y="604"/>
      <point x="314" y="619"/>
      <point x="314" y="674" type="curve" name="hr01"/>
      <point x="214" y="682" type="line"/>
      <point x="214" y="624"/>
      <point x="215" y="604"/>
      <point x="217" y="564" type="curve"/>
      <point x="122" y="519"/>
      <point x="98" y="348"/>
      <point x="98" y="259" type="curve" smooth="yes" name="hr02"/>
      <point x="98" y="157"/>
      <point x="145" y="104"/>
      <point x="201" y="85" type="curve"/>
      <point x="200" y="50"/>
      <point x="198" y="31"/>
      <point x="191" y="-17" type="curve"/>
      <point x="291" y="-26" type="line"/>
      <point x="299" y="26"/>
      <point x="301" y="48"/>
      <point x="302" y="88" type="curve"/>
      <point x="349" y="111"/>
      <point x="385" y="166"/>
      <point x="411" y="236" type="curve"/>
      <point x="337" y="289" type="line"/>
      <point x="305" y="228"/>
      <point x="275" y="184"/>
      <point x="252" y="184" type="curve" smooth="yes"/>
      <point x="234" y="184"/>
      <point x="215" y="205"/>
      <point x="215" y="259" type="curve" smooth="yes"/>
      <point x="215" y="325"/>
      <point x="225" y="458"/>
      <point x="268" y="458" type="curve" smooth="yes"/>
      <point x="290" y="458"/>
      <point x="305" y="419"/>
      <point x="305" y="386" type="curve" smooth="yes"/>
      <point x="305" y="375"/>
      <point x="304" y="361"/>
      <point x="303" y="354" type="curve"/>
    </contour>
  </outline>
</glyph>
<glyph name="sterling" format="1">
  <advance width="484"/>
  <unicode hex="00A3"/>
  <outline>
    <contour>
      <point x="45" y="222" type="line" name="hr00"/>
      <point x="70" y="226"/>
      <point x="99" y="229"/>
      <point x="128" y="231" type="curve"/>
      <point x="111" y="154"/>
      <point x="81" y="116"/>
      <point x="17" y="80" type="curve"/>
      <point x="63" y="-21" type="line"/>
      <point x="198" y="6"/>
      <point x="350" y="12"/>
      <point x="487" y="13" type="curve"/>
      <point x="477" y="123" type="line"/>
      <point x="375" y="122"/>
      <point x="289" y="115"/>
      <point x="184" y="101" type="curve"/>
      <point x="213" y="137"/>
      <point x="233" y="181"/>
      <point x="246" y="237" type="curve"/>
      <point x="305" y="239"/>
      <point x="364" y="239"/>
      <point x="414" y="239" type="curve"/>
      <point x="400" y="334" type="line"/>
      <point x="351" y="334"/>
      <point x="305" y="332"/>
      <point x="261" y="329" type="curve"/>
      <point x="263" y="343" type="line" smooth="yes"/>
      <point x="282" y="520"/>
      <point x="309" y="544"/>
      <point x="328" y="544" type="curve" smooth="yes"/>
      <point x="354" y="544"/>
      <point x="363" y="510"/>
      <point x="363" y="466" type="curve" smooth="yes"/>
      <point x="363" y="450"/>
      <point x="361" y="431"/>
      <point x="359" y="416" type="curve"/>
      <point x="457" y="406" type="line"/>
      <point x="461" y="429"/>
      <point x="463" y="445"/>
      <point x="463" y="466" type="curve" smooth="yes"/>
      <point x="463" y="570"/>
      <point x="417" y="654"/>
      <point x="333" y="654" type="curve" smooth="yes"/>
      <point x="260" y="654"/>
      <point x="163" y="610"/>
      <point x="143" y="353" type="curve" smooth="yes"/>
      <point x="140" y="317" type="line"/>
      <point x="100" y="312"/>
      <point x="61" y="306"/>
      <point x="23" y="300" type="curve"/>
    </contour>
  </outline>
</glyph>
<glyph name="yen" format="1">
  <advance width="481"/>
  <unicode hex="00A5"/>
  <outline>
    <contour>
      <point x="292" y="-21" type="line"/>
      <point x="289" y="31"/>
      <point x="288" y="83"/>
      <point x="288" y="133" type="curve" smooth="yes"/>
      <point x="288" y="162"/>
      <point x="288" y="193"/>
      <point x="289" y="223" type="curve"/>
      <point x="337" y="224"/>
      <point x="383" y="224"/>
      <point x="424" y="224" type="curve"/>
      <point x="420" y="299" type="line"/>
      <point x="382" y="299"/>
      <point x="346" y="298"/>
      <point x="311" y="297" type="curve"/>
      <point x="331" y="340" type="line" name="hr01"/>
      <point x="363" y="341"/>
      <point x="395" y="341"/>
      <point x="424" y="341" type="curve"/>
      <point x="420" y="416" type="line"/>
      <point x="401" y="416"/>
      <point x="382" y="416"/>
      <point x="364" y="415" type="curve"/>
      <point x="400" y="500"/>
      <point x="431" y="582"/>
      <point x="458" y="663" type="curve"/>
      <point x="347" y="674" type="line"/>
      <point x="318" y="583"/>
      <point x="282" y="480"/>
      <point x="233" y="367" type="curve"/>
      <point x="183" y="466"/>
      <point x="154" y="535"/>
      <point x="136" y="615" type="curve"/>
      <point x="16" y="627" type="line"/>
      <point x="23" y="571"/>
      <point x="55" y="485"/>
      <point x="99" y="391" type="curve"/>
      <point x="33" y="382" type="line"/>
      <point x="45" y="314" type="line"/>
      <point x="71" y="319"/>
      <point x="100" y="324"/>
      <point x="130" y="327" type="curve"/>
      <point x="151" y="287" type="line"/>
      <point x="33" y="275" type="line"/>
      <point x="45" y="207" type="line"/>
      <point x="83" y="212"/>
      <point x="125" y="216"/>
      <point x="171" y="219" type="curve"/>
      <point x="171" y="191" type="line" smooth="yes"/>
      <point x="171" y="120"/>
      <point x="171" y="55"/>
      <point x="180" y="-7" type="curve"/>
    </contour>
  </outline>
</glyph>
<glyph name="brokenbar" format="1">
  <advance width="500"/>
  <unicode hex="00A6"/>
  <outline>
    <contour>
      <point x="290" y="421" type="line" name="hr00"/>
      <point x="288" y="539"/>
      <point x="284" y="649"/>
      <point x="284" y="760" type="curve"/>
      <point x="204" y="760" type="line"/>
      <point x="204" y="646"/>
      <point x="207" y="536"/>
      <point x="209" y="426" type="curve"/>
    </contour>
    <contour>
      <point x="212" y="140" type="line"/>
      <point x="211" y="5"/>
      <point x="209" y="-119"/>
      <point x="201" y="-238" type="curve"/>
      <point x="281" y="-245" type="line"/>
      <point x="288" y="-127"/>
      <point x="291" y="6"/>
      <point x="292" y="133" type="curve"/>
    </contour>
  </outline>
</glyph>
<glyph name="ordfeminine" format="1">
  <advance width="293"/>
  <unicode hex="00AA"/>
  <outline>
    <contour>
      <point x="112" y="574" type="line"/>
      <point x="116" y="597"/>
      <point x="127" y="625"/>
      <point x="142" y="625" type="curve" smooth="yes"/>
      <point x="162" y="625"/>
      <point x="164" y="599"/>
      <point x="164" y="579" type="curve" smooth="yes"/>
      <point x="164" y="561" type="line"/>
      <point x="91" y="559"/>
      <point x="18" y="516"/>
      <point x="18" y="450" type="curve" smooth="yes" name="hr01"/>
      <point x="18" y="400"/>
      <point x="54" y="366"/>
      <point x="113" y="366" type="curve" smooth="yes"/>
      <point x="133" y="366"/>
      <point x="153" y="374"/>
      <point x="170" y="385" type="curve"/>
      <point x="176" y="362" type="line"/>
      <point x="250" y="358" type="line" name="hr02"/>
      <point x="254" y="433"/>
      <point x="258" y="506"/>
      <point x="258" y="570" type="curve" smooth="yes"/>
      <point x="258" y="643"/>
      <point x="233" y="712"/>
      <point x="150" y="712" type="curve" smooth="yes"/>
      <point x="83" y="712"/>
      <point x="41" y="646"/>
      <point x="27" y="580" type="curve"/>
    </contour>
    <contour>
      <point x="160" y="446" type="line"/>
      <point x="147" y="440"/>
      <point x="136" y="438"/>
      <point x="127" y="438" type="curve" smooth="yes"/>
      <point x="116" y="438"/>
      <point x="110" y="444"/>
      <point x="110" y="455" type="curve" smooth="yes"/>
      <point x="110" y="466"/>
      <point x="125" y="482"/>
      <point x="162" y="485" type="curve"/>
    </contour>
  </outline>
</glyph>
<glyph name="logicalnot" format="1">
  <advance width="833"/>
  <unicode hex="00AC"/>
  <outline>
    <contour>
      <point x="700" y="420" type="curve" name="hr00"/>
      <point x="631" y="429"/>
      <point x="552" y="431"/>
      <point x="479" y="431" type="curve" smooth="yes"/>
      <point x="347" y="431"/>
      <point x="235" y="423"/>
      <point x="123" y="423" type="curve"/>
      <point x="123" y="313" type="line"/>
      <point x="248" y="313"/>
      <point x="369" y="321"/>
      <point x="489" y="321" type="curve" smooth="yes"/>
      <point x="524" y="321"/>
      <point x="556" y="320"/>
      <point x="588" y="319" type="curve"/>
      <point x="588" y="253" type="line" smooth="yes"/>
      <point x="588" y="228"/>
      <point x="585" y="206"/>
      <point x="580" y="183" type="curve"/>
      <point x="700" y="173" type="line"/>
      <point x="707" y="198"/>
      <point x="710" y="242"/>
      <point x="710" y="283" type="curve" smooth="yes"/>
      <point x="710" y="304"/>
      <point x="710" y="356"/>
    </contour>
  </outline>
</glyph>
<glyph name="degree" format="1">
  <advance width="329"/>
  <unicode hex="00B0"/>
  <outline>
    <contour>
      <point x="155" y="487" type="curve" smooth="yes" name="hr00"/>
      <point x="120" y="487"/>
      <point x="95" y="508"/>
      <point x="95" y="548" type="curve" smooth="yes"/>
      <point x="95" y="591"/>
      <point x="122" y="640"/>
      <point x="174" y="640" type="curve" smooth="yes"/>
      <point x="209" y="640"/>
      <point x="234" y="620"/>
      <point x="234" y="582" type="curve" smooth="yes"/>
      <point x="234" y="539"/>
      <point x="206" y="487"/>
    </contour>
    <contour>
      <point x="152" y="411" type="curve" smooth="yes"/>
      <point x="255" y="411"/>
      <point x="317" y="501"/>
      <point x="317" y="581" type="curve" smooth="yes"/>
      <point x="317" y="662"/>
      <point x="257" y="716"/>
      <point x="177" y="716" type="curve" smooth="yes"/>
      <point x="75" y="716"/>
      <point x="12" y="628"/>
      <point x="12" y="546" type="curve" smooth="yes"/>
      <point x="12" y="466"/>
      <point x="72" y="411"/>
    </contour>
  </outline>
</glyph>
<glyph name="twosuperior" format="1">
  <advance width="364"/>
  <unicode hex="00B2"/>
  <outline>
    <contour>
      <point x="118" y="471" type="line"/>
      <point x="149" y="506"/>
      <point x="191" y="552"/>
      <point x="209" y="552" type="curve" smooth="yes"/>
      <point x="220" y="552"/>
      <point x="225" y="542"/>
      <point x="225" y="530" type="curve" smooth="yes"/>
      <point x="225" y="493"/>
      <point x="135" y="378"/>
      <point x="45" y="311" type="curve"/>
      <point x="83" y="237" type="line"/>
      <point x="149" y="251"/>
      <point x="195" y="255"/>
      <point x="237" y="255" type="curve" smooth="yes" name="hr01"/>
      <point x="256" y="255"/>
      <point x="277" y="254"/>
      <point x="299" y="252" type="curve"/>
      <point x="306" y="340" type="line"/>
      <point x="265" y="340"/>
      <point x="231" y="340"/>
      <point x="197" y="338" type="curve"/>
      <point x="268" y="413"/>
      <point x="319" y="483"/>
      <point x="319" y="535" type="curve" smooth="yes"/>
      <point x="319" y="590"/>
      <point x="283" y="640"/>
      <point x="209" y="640" type="curve" smooth="yes"/>
      <point x="143" y="640"/>
      <point x="92" y="577"/>
      <point x="52" y="529" type="curve"/>
    </contour>
  </outline>
</glyph>
<glyph name="acute" format="1">
  <advance width="500"/>
  <unicode hex="00B4"/>
  <outline>
    <contour>
      <point x="230" y="515" type="line" name="hr00"/>
      <point x="298" y="550"/>
      <point x="360" y="573"/>
      <point x="423" y="588" type="curve"/>
      <point x="369" y="677" type="line"/>
      <point x="300" y="647"/>
      <point x="243" y="610"/>
      <point x="185" y="572" type="curve"/>
    </contour>
  </outline>
</glyph>
<glyph name="mu" format="1">
  <advance width="420"/>
  <unicode hex="00B5"/>
  <unicode hex="03BC"/>
  <outline>
    <contour>
      <point x="135" y="-244" type="line"/>
      <point x="137" y="-163"/>
      <point x="138" y="-89"/>
      <point x="145" y="-1" type="curve"/>
      <point x="151" y="-2"/>
      <point x="158" y="-3"/>
      <point x="165" y="-3" type="curve" smooth="yes"/>
      <point x="201" y="-3"/>
      <point x="238" y="28"/>
      <point x="272" y="78" type="curve"/>
      <point x="279" y="47"/>
      <point x="283" y="18"/>
      <point x="285" y="-7" type="curve"/>
      <point x="384" y="-17" type="line"/>
      <point x="378" y="62"/>
      <point x="376" y="190"/>
      <point x="376" y="311" type="curve" smooth="yes"/>
      <point x="376" y="368"/>
      <point x="378" y="418"/>
      <point x="378" y="469" type="curve"/>
      <point x="262" y="479" type="line"/>
      <point x="261" y="428"/>
      <point x="259" y="368"/>
      <point x="259" y="311" type="curve" smooth="yes"/>
      <point x="259" y="289"/>
      <point x="259" y="266"/>
      <point x="260" y="244" type="curve"/>
      <point x="242" y="164"/>
      <point x="209" y="104"/>
      <point x="189" y="104" type="curve" smooth="yes"/>
      <point x="167" y="104"/>
      <point x="157" y="124"/>
      <point x="157" y="155" type="curve" smooth="yes" name="hr01"/>
      <point x="157" y="267"/>
      <point x="165" y="344"/>
      <point x="175" y="439" type="curve"/>
      <point x="59" y="450" type="line"/>
      <point x="48" y="346"/>
      <point x="40" y="259"/>
      <point x="40" y="140" type="curve" smooth="yes"/>
      <point x="40" y="112"/>
      <point x="44" y="88"/>
      <point x="53" y="68" type="curve"/>
      <point x="39" y="-42"/>
      <point x="31" y="-125"/>
      <point x="27" y="-235" type="curve" name="hr02"/>
    </contour>
  </outline>
</glyph>
<glyph name="periodcentered" format="1">
  <advance width="260"/>
  <unicode hex="00B7"/>
  <outline>
    <contour>
      <point x="58" y="411" type="line" name="hr00"/>
      <point x="59" y="387"/>
      <point x="59" y="361"/>
      <point x="59" y="336" type="curve" smooth="yes"/>
      <point x="59" y="299"/>
      <point x="54" y="264"/>
      <point x="50" y="230" type="curve"/>
      <point x="185" y="219" type="line"/>
      <point x="196" y="247"/>
      <point x="199" y="286"/>
      <point x="199" y="325" type="curve" smooth="yes"/>
      <point x="199" y="351"/>
      <point x="195" y="377"/>
      <point x="188" y="399" type="curve"/>
    </contour>
  </outline>
</glyph>
<glyph name="onesuperior" format="1">
  <advance width="274"/>
  <unicode hex="00B9"/>
  <outline>
    <contour>
      <point x="101" y="472" type="line" name="hr00"/>
      <point x="125" y="505" type="line"/>
      <point x="122" y="464"/>
      <point x="121" y="421"/>
      <point x="121" y="377" type="curve" smooth="yes"/>
      <point x="121" y="336"/>
      <point x="122" y="294"/>
      <point x="125" y="253" type="curve"/>
      <point x="225" y="245" type="line"/>
      <point x="220" y="309"/>
      <point x="217" y="373"/>
      <point x="217" y="429" type="curve" smooth="yes"/>
      <point x="217" y="492"/>
      <point x="217" y="561"/>
      <point x="229" y="635" type="curve"/>
      <point x="135" y="643" type="line"/>
      <point x="107" y="595"/>
      <point x="79" y="552"/>
      <point x="45" y="511" type="curve"/>
    </contour>
  </outline>
</glyph>
<glyph name="ordmasculine" format="1">
  <advance width="276"/>
  <unicode hex="00BA"/>
  <outline>
    <contour>
      <point x="114" y="504" type="curve" smooth="yes" name="hr00"/>
      <point x="114" y="546"/>
      <point x="125" y="626"/>
      <point x="146" y="626" type="curve" smooth="yes"/>
      <point x="162" y="626"/>
      <point x="166" y="590"/>
      <point x="166" y="562" type="curve" smooth="yes"/>
      <point x="166" y="512"/>
      <point x="155" y="444"/>
      <point x="139" y="444" type="curve" smooth="yes"/>
      <point x="127" y="444"/>
      <point x="114" y="456"/>
    </contour>
    <contour>
      <point x="16" y="511" type="curve" smooth="yes"/>
      <point x="16" y="389"/>
      <point x="75" y="359"/>
      <point x="139" y="359" type="curve" smooth="yes"/>
      <point x="224" y="359"/>
      <point x="264" y="463"/>
      <point x="264" y="555" type="curve" smooth="yes"/>
      <point x="264" y="622"/>
      <point x="238" y="712"/>
      <point x="146" y="712" type="curve" smooth="yes"/>
      <point x="50" y="712"/>
      <point x="16" y="587"/>
    </contour>
  </outline>
</glyph>
<glyph name="Agrave" format="1">
  <advance width="516"/>
  <unicode hex="00C0"/>
  <outline>
    <contour>
      <point x="353" y="10" type="line" name="hr00"/>
      <point x="498" y="-2" type="line"/>
      <point x="367" y="676" type="line"/>
      <point x="182" y="692" type="line"/>
      <point x="3" y="-33" type="line"/>
      <point x="143" y="-45" type="line"/>
      <point x="181" y="143" type="line"/>
      <point x="330" y="149" type="line"/>
    </contour>
    <contour>
      <point x="265" y="561" type="line"/>
      <point x="314" y="254" type="line"/>
      <point x="202" y="250" type="line"/>
    </contour>
    <contour>
      <point x="337" y="823" type="line"/>
      <point x="279" y="861"/>
      <point x="222" y="898"/>
      <point x="153" y="928" type="curve"/>
      <point x="99" y="839" type="line"/>
      <point x="162" y="824"/>
      <point x="224" y="801"/>
      <point x="292" y="766" type="curve"/>
    </contour>
  </outline>
</glyph>
<glyph name="Acircumflex" format="1">
  <advance width="516"/>
  <unicode hex="00C2"/>
  <outline>
    <contour>
      <point x="353" y="10" type="line" name="hr00"/>
      <point x="498" y="-2" type="line"/>
      <point x="367" y="676" type="line"/>
      <point x="182" y="692" type="line"/>
      <point x="3" y="-33" type="line"/>
      <point x="143" y="-45" type="line"/>
      <point x="181" y="143" type="line"/>
      <point x="330" y="149" type="line"/>
    </contour>
    <contour>
      <point x="265" y="561" type="line"/>
      <point x="314" y="254" type="line"/>
      <point x="202" y="250" type="line"/>
    </contour>
    <contour>
      <point x="237" y="923" type="line"/>
      <point x="189" y="881"/>
      <point x="149" y="838"/>
      <point x="109" y="793" type="curve"/>
      <point x="167" y="750" type="line"/>
      <point x="201" y="780"/>
      <point x="234" y="806"/>
      <point x="267" y="829" type="curve"/>
      <point x="293" y="808"/>
      <point x="319" y="785"/>
      <point x="348" y="759" type="curve"/>
      <point x="406" y="803" type="line"/>
      <point x="373" y="843"/>
      <point x="343" y="881"/>
      <point x="305" y="918" type="curve"/>
    </contour>
  </outline>
</glyph>
<glyph name="Aring" format="1">
  <advance width="516"/>
  <unicode hex="00C5"/>
  <outline>
    <contour>
      <point x="353" y="10" type="line" name="hr00"/>
      <point x="498" y="-2" type="line"/>
      <point x="367" y="676" type="line"/>
      <point x="182" y="692" type="line"/>
      <point x="3" y="-33" type="line"/>
      <point x="143" y="-45" type="line"/>
      <point x="181" y="143" type="line"/>
      <point x="330" y="149" type="line"/>
    </contour>
    <contour>
      <point x="265" y="561" type="line"/>
      <point x="314" y="254" type="line"/>
      <point x="202" y="250" type="line"/>
    </contour>
    <contour>
      <point x="272" y="783" type="curve" smooth="yes"/>
      <point x="250" y="783"/>
      <point x="233" y="798"/>
      <point x="233" y="826" type="curve" smooth="yes"/>
      <point x="233" y="855"/>
      <point x="252" y="888"/>
      <point x="286" y="888" type="curve" smooth="yes"/>
      <point x="308" y="888"/>
      <point x="325" y="874"/>
      <point x="325" y="846" type="curve" smooth="yes"/>
      <point x="325" y="817"/>
      <point x="306" y="783"/>
    </contour>
    <contour>
      <point x="270" y="728" type="curve" smooth="yes"/>
      <point x="348" y="728"/>
      <point x="395" y="791"/>
      <point x="395" y="848" type="curve" smooth="yes"/>
      <point x="395" y="905"/>
      <point x="349" y="943"/>
      <point x="288" y="943" type="curve" smooth="yes"/>
      <point x="211" y="943"/>
      <point x="163" y="881"/>
      <point x="163" y="823" type="curve" smooth="yes"/>
      <point x="163" y="767"/>
      <point x="209" y="728"/>
    </contour>
  </outline>
</glyph>
<glyph name="Ccedilla" format="1">
  <advance width="482"/>
  <unicode hex="00C7"/>
  <outline>
    <contour>
      <point x="451" y="384" type="line"/>
      <point x="448" y="524"/>
      <point x="439" y="703"/>
      <point x="278" y="703" type="curve" smooth="yes"/>
      <point x="96" y="703"/>
      <point x="26" y="432"/>
      <point x="26" y="259" type="curve" smooth="yes"/>
      <point x="26" y="113"/>
      <point x="88" y="-7"/>
      <point x="213" y="-27" type="curve"/>
      <point x="202" y="-58"/>
      <point x="197" y="-89"/>
      <point x="196" y="-129" type="curve"/>
      <point x="224" y="-132" type="line"/>
      <point x="234" y="-127"/>
      <point x="243" y="-125"/>
      <point x="252" y="-125" type="curve" smooth="yes"/>
      <point x="272" y="-125"/>
      <point x="287" y="-137"/>
      <point x="287" y="-153" type="curve" smooth="yes" name="hr01"/>
      <point x="287" y="-172"/>
      <point x="266" y="-181"/>
      <point x="245" y="-181" type="curve" smooth="yes"/>
      <point x="210" y="-181"/>
      <point x="160" y="-160"/>
      <point x="130" y="-144" type="curve"/>
      <point x="112" y="-189" type="line"/>
      <point x="149" y="-217"/>
      <point x="198" y="-232"/>
      <point x="247" y="-232" type="curve" smooth="yes"/>
      <point x="326" y="-232"/>
      <point x="373" y="-201"/>
      <point x="373" y="-139" type="curve" smooth="yes"/>
      <point x="373" y="-90"/>
      <point x="330" y="-62"/>
      <point x="288" y="-62" type="curve" smooth="yes"/>
      <point x="280" y="-62"/>
      <point x="273" y="-63"/>
      <point x="265" y="-65" type="curve"/>
      <point x="260" y="-51"/>
      <point x="258" y="-40"/>
      <point x="257" y="-30" type="curve"/>
      <point x="382" y="-26"/>
      <point x="440" y="73"/>
      <point x="472" y="223" type="curve"/>
      <point x="345" y="233" type="line"/>
      <point x="327" y="168"/>
      <point x="306" y="98"/>
      <point x="251" y="98" type="curve" smooth="yes"/>
      <point x="187" y="98"/>
      <point x="159" y="167"/>
      <point x="159" y="269" type="curve" smooth="yes"/>
      <point x="159" y="368"/>
      <point x="204" y="575"/>
      <point x="269" y="575" type="curve" smooth="yes"/>
      <point x="320" y="575"/>
      <point x="322" y="468"/>
      <point x="322" y="396" type="curve" name="hr02"/>
    </contour>
  </outline>
</glyph>
<glyph name="Egrave" format="1">
  <advance width="447"/>
  <unicode hex="00C8"/>
  <outline>
    <contour>
      <point x="413" y="131" type="line"/>
      <point x="356" y="120"/>
      <point x="283" y="107"/>
      <point x="205" y="101" type="curve"/>
      <point x="204" y="154"/>
      <point x="204" y="204"/>
      <point x="204" y="274" type="curve"/>
      <point x="262" y="280"/>
      <point x="347" y="288"/>
      <point x="405" y="289" type="curve"/>
      <point x="386" y="399" type="line"/>
      <point x="321" y="398"/>
      <point x="266" y="395"/>
      <point x="206" y="386" type="curve"/>
      <point x="207" y="442"/>
      <point x="209" y="501"/>
      <point x="211" y="558" type="curve"/>
      <point x="280" y="563"/>
      <point x="355" y="565"/>
      <point x="421" y="565" type="curve"/>
      <point x="421" y="688" type="line"/>
      <point x="337" y="688"/>
      <point x="225" y="683"/>
      <point x="87" y="662" type="curve"/>
      <point x="79" y="549"/>
      <point x="71" y="367"/>
      <point x="71" y="249" type="curve" smooth="yes" name="hr01"/>
      <point x="71" y="154"/>
      <point x="73" y="75"/>
      <point x="75" y="-4" type="curve"/>
      <point x="229" y="-18" type="line"/>
      <point x="322" y="-18"/>
      <point x="384" y="0"/>
      <point x="430" y="21" type="curve"/>
    </contour>
    <contour>
      <point x="309" y="823" type="line"/>
      <point x="251" y="861"/>
      <point x="194" y="898"/>
      <point x="125" y="928" type="curve"/>
      <point x="71" y="839" type="line"/>
      <point x="134" y="824"/>
      <point x="196" y="801"/>
      <point x="264" y="766" type="curve"/>
    </contour>
  </outline>
</glyph>
<glyph name="Igrave" format="1">
  <advance width="289"/>
  <unicode hex="00CC"/>
  <outline>
    <contour>
      <point x="98" y="704" type="line"/>
      <point x="92" y="581"/>
      <point x="89" y="476"/>
      <point x="89" y="368" type="curve" smooth="yes"/>
      <point x="89" y="249"/>
      <point x="93" y="128"/>
      <point x="102" y="-13" type="curve" name="hr01"/>
      <point x="237" y="-25" type="line"/>
      <point x="228" y="88"/>
      <point x="224" y="219"/>
      <point x="224" y="351" type="curve" smooth="yes"/>
      <point x="224" y="469"/>
      <point x="227" y="587"/>
      <point x="233" y="692" type="curve" name="hr02"/>
    </contour>
    <contour>
      <point x="226" y="823" type="line"/>
      <point x="168" y="861"/>
      <point x="111" y="898"/>
      <point x="42" y="928" type="curve"/>
      <point x="-12" y="839" type="line"/>
      <point x="51" y="824"/>
      <point x="113" y="801"/>
      <point x="181" y="766" type="curve"/>
    </contour>
  </outline>
</glyph>
<glyph name="Idieresis" format="1">
  <advance width="289"/>
  <unicode hex="00CF"/>
  <outline>
    <contour>
      <point x="98" y="704" type="line"/>
      <point x="92" y="581"/>
      <point x="89" y="476"/>
      <point x="89" y="368" type="curve" smooth="yes"/>
      <point x="89" y="249"/>
      <point x="93" y="128"/>
      <point x="102" y="-13" type="curve"/>
      <point x="237" y="-25" type="line"/>
      <point x="228" y="88"/>
      <point x="224" y="219"/>
      <point x="224" y="351" type="curve" smooth="yes"/>
      <point x="224" y="469"/>
      <point x="227" y="587"/>
      <point x="233" y="692" type="curve" name="hr01"/>
    </contour>
    <contour>
      <point x="46" y="908" type="line"/>
      <point x="47" y="890"/>
      <point x="47" y="874"/>
      <point x="47" y="854" type="curve" smooth="yes"/>
      <point x="47" y="831"/>
      <point x="42" y="810"/>
      <point x="38" y="788" type="curve"/>
      <point x="133" y="778" type="line"/>
      <point x="144" y="795"/>
      <point x="147" y="820"/>
      <point x="147" y="843" type="curve" smooth="yes"/>
      <point x="147" y="862"/>
      <point x="147" y="884"/>
      <point x="136" y="900" type="curve"/>
    </contour>
    <contour>
      <point x="201" y="910" type="line"/>
      <point x="202" y="892"/>
      <point x="202" y="876"/>
      <point x="202" y="856" type="curve" smooth="yes"/>
      <point x="202" y="833"/>
      <point x="197" y="812"/>
      <point x="193" y="790" type="curve"/>
      <point x="288" y="780" type="line"/>
      <point x="299" y="797"/>
      <point x="302" y="822"/>
      <point x="302" y="845" type="curve" smooth="yes"/>
      <point x="302" y="864"/>
      <point x="302" y="886"/>
      <point x="291" y="902" type="curve"/>
    </contour>
  </outline>
</glyph>
<glyph name="Ntilde" format="1">
  <advance width="544"/>
  <unicode hex="00D1"/>
  <outline>
    <contour>
      <point x="171" y="-30" type="line"/>
      <point x="171" y="138"/>
      <point x="171" y="294"/>
      <point x="170" y="442" type="curve"/>
      <point x="246" y="306"/>
      <point x="316" y="144"/>
      <point x="381" y="3" type="curve"/>
      <point x="493" y="-8" type="line"/>
      <point x="497" y="58"/>
      <point x="501" y="164"/>
      <point x="501" y="239" type="curve" smooth="yes"/>
      <point x="501" y="401"/>
      <point x="500" y="560"/>
      <point x="500" y="704" type="curve"/>
      <point x="375" y="715" type="line"/>
      <point x="382" y="570"/>
      <point x="386" y="401"/>
      <point x="389" y="239" type="curve" name="hr01"/>
      <point x="320" y="363"/>
      <point x="265" y="505"/>
      <point x="211" y="654" type="curve"/>
      <point x="78" y="667" type="line"/>
      <point x="64" y="500"/>
      <point x="51" y="296"/>
      <point x="51" y="103" type="curve" smooth="yes"/>
      <point x="51" y="63"/>
      <point x="52" y="24"/>
      <point x="54" y="-17" type="curve"/>
    </contour>
    <contour>
      <point x="373" y="902" type="line"/>
      <point x="361" y="886"/>
      <point x="344" y="870"/>
      <point x="321" y="870" type="curve" smooth="yes"/>
      <point x="290" y="870"/>
      <point x="265" y="898"/>
      <point x="226" y="898" type="curve" smooth="yes" name="hr02"/>
      <point x="180" y="898"/>
      <point x="151" y="851"/>
      <point x="133" y="813" type="curve"/>
      <point x="193" y="781" type="line"/>
      <point x="205" y="793"/>
      <point x="221" y="804"/>
      <point x="243" y="804" type="curve" smooth="yes"/>
      <point x="274" y="804"/>
      <point x="292" y="786"/>
      <point x="338" y="786" type="curve" smooth="yes" name="hr03"/>
      <point x="385" y="786"/>
      <point x="429" y="845"/>
      <point x="433" y="897" type="curve"/>
    </contour>
  </outline>
</glyph>
<glyph name="Otilde" format="1">
  <advance width="521"/>
  <unicode hex="00D5"/>
  <outline>
    <contour>
      <point x="34" y="310" type="curve" smooth="yes"/>
      <point x="34" y="65"/>
      <point x="144" y="-34"/>
      <point x="263" y="-34" type="curve" smooth="yes"/>
      <point x="380" y="-34"/>
      <point x="500" y="120"/>
      <point x="500" y="362" type="curve" smooth="yes"/>
      <point x="500" y="606"/>
      <point x="392" y="706"/>
      <point x="275" y="706" type="curve" smooth="yes"/>
      <point x="149" y="706"/>
      <point x="34" y="552"/>
    </contour>
    <contour>
      <point x="167" y="310" type="curve" smooth="yes"/>
      <point x="167" y="479"/>
      <point x="219" y="587"/>
      <point x="275" y="587" type="curve" smooth="yes"/>
      <point x="323" y="587"/>
      <point x="367" y="522"/>
      <point x="367" y="362" type="curve" smooth="yes"/>
      <point x="367" y="192"/>
      <point x="314" y="84"/>
      <point x="263" y="84" type="curve" smooth="yes"/>
      <point x="213" y="84"/>
      <point x="167" y="150"/>
    </contour>
    <contour>
      <point x="363" y="902" type="line"/>
      <point x="351" y="886"/>
      <point x="334" y="870"/>
      <point x="311" y="870" type="curve" smooth="yes"/>
      <point x="280" y="870"/>
      <point x="255" y="898"/>
      <point x="216" y="898" type="curve" smooth="yes" name="hr01"/>
      <point x="170" y="898"/>
      <point x="141" y="851"/>
      <point x="123" y="813" type="curve"/>
      <point x="183" y="781" type="line"/>
      <point x="195" y="793"/>
      <point x="211" y="804"/>
      <point x="233" y="804" type="curve" smooth="yes"/>
      <point x="264" y="804"/>
      <point x="282" y="786"/>
      <point x="328" y="786" type="curve" smooth="yes" name="hr02"/>
      <point x="375" y="786"/>
      <point x="419" y="845"/>
      <point x="423" y="897" type="curve"/>
    </contour>
  </outline>
</glyph>
<glyph name="Odieresis" format="1">
  <advance width="521"/>
  <unicode hex="00D6"/>
  <outline>
    <contour>
      <point x="34" y="310" type="curve" smooth="yes"/>
      <point x="34" y="65"/>
      <point x="144" y="-34"/>
      <point x="263" y="-34" type="curve" smooth="yes"/>
      <point x="380" y="-34"/>
      <point x="500" y="120"/>
      <point x="500" y="362" type="curve" smooth="yes"/>
      <point x="500" y="606"/>
      <point x="392" y="706"/>
      <point x="275" y="706" type="curve" smooth="yes"/>
      <point x="149" y="706"/>
      <point x="34" y="552"/>
    </contour>
    <contour>
      <point x="167" y="310" type="curve" smooth="yes"/>
      <point x="167" y="479"/>
      <point x="219" y="587"/>
      <point x="275" y="587" type="curve" smooth="yes"/>
      <point x="323" y="587"/>
      <point x="367" y="522"/>
      <point x="367" y="362" type="curve" smooth="yes"/>
      <point x="367" y="192"/>
      <point x="314" y="84"/>
      <point x="263" y="84" type="curve" smooth="yes"/>
      <point x="213" y="84"/>
      <point x="167" y="150"/>
    </contour>
    <contour>
      <point x="141" y="908" type="line"/>
      <point x="142" y="890"/>
      <point x="142" y="874"/>
      <point x="142" y="854" type="curve" smooth="yes"/>
      <point x="142" y="831"/>
      <point x="137" y="810"/>
      <point x="133" y="788" type="curve"/>
      <point x="228" y="778" type="line"/>
      <point x="239" y="795"/>
      <point x="242" y="820"/>
      <point x="242" y="843" type="curve" smooth="yes"/>
      <point x="242" y="862"/>
      <point x="242" y="884"/>
      <point x="231" y="900" type="curve"/>
    </contour>
    <contour>
      <point x="296" y="910" type="line"/>
      <point x="297" y="892"/>
      <point x="297" y="876"/>
      <point x="297" y="856" type="curve" smooth="yes" name="hr01"/>
      <point x="297" y="833"/>
      <point x="292" y="812"/>
      <point x="288" y="790" type="curve"/>
      <point x="383" y="780" type="line"/>
      <point x="394" y="797"/>
      <point x="397" y="822"/>
      <point x="397" y="845" type="curve" smooth="yes"/>
      <point x="397" y="864"/>
      <point x="397" y="886"/>
      <point x="386" y="902" type="curve"/>
    </contour>
  </outline>
</glyph>
<glyph name="Oslash" format="1">
  <advance width="521"/>
  <unicode hex="00D8"/>
  <outline>
    <contour>
      <point x="34" y="310" type="curve" smooth="yes"/>
      <point x="34" y="236"/>
      <point x="44" y="175"/>
      <point x="61" y="126" type="curve"/>
      <point x="-69" y="-64" type="line"/>
      <point x="8" y="-93" type="line"/>
      <point x="38" y="-43"/>
      <point x="69" y="5"/>
      <point x="99" y="52" type="curve"/>
      <point x="142" y="-7"/>
      <point x="201" y="-34"/>
      <point x="263" y="-34" type="curve" smooth="yes"/>
      <point x="380" y="-34"/>
      <point x="500" y="120"/>
      <point x="500" y="362" type="curve" smooth="yes"/>
      <point x="500" y="438"/>
      <point x="489" y="501"/>
      <point x="471" y="550" type="curve"/>
      <point x="510" y="597"/>
      <point x="549" y="642"/>
      <point x="589" y="686" type="curve"/>
      <point x="525" y="726" type="line"/>
      <point x="494" y="692"/>
      <point x="464" y="658"/>
      <point x="433" y="622" type="curve"/>
      <point x="391" y="680"/>
      <point x="334" y="706"/>
      <point x="275" y="706" type="curve" smooth="yes"/>
      <point x="149" y="706"/>
      <point x="34" y="552"/>
    </contour>
    <contour>
      <point x="368" y="429" type="curve"/>
      <point x="370" y="409"/>
      <point x="371" y="386"/>
      <point x="371" y="362" type="curve" smooth="yes"/>
      <point x="371" y="190"/>
      <point x="316" y="80"/>
      <point x="263" y="80" type="curve" smooth="yes"/>
      <point x="229" y="80"/>
      <point x="197" y="109"/>
      <point x="179" y="173" type="curve"/>
      <point x="240" y="263"/>
      <point x="303" y="348"/>
    </contour>
    <contour>
      <point x="163" y="310" type="curve" smooth="yes"/>
      <point x="163" y="481"/>
      <point x="217" y="591"/>
      <point x="275" y="591" type="curve" smooth="yes" name="hr01"/>
      <point x="305" y="591"/>
      <point x="334" y="566"/>
      <point x="352" y="512" type="curve"/>
      <point x="289" y="433"/>
      <point x="227" y="350"/>
      <point x="164" y="262" type="curve"/>
      <point x="163" y="277"/>
      <point x="163" y="293"/>
    </contour>
  </outline>
</glyph>
<glyph name="Udieresis" format="1">
  <advance width="539"/>
  <unicode hex="00DC"/>
  <outline>
    <contour>
      <point x="77" y="685" type="line"/>
      <point x="62" y="529"/>
      <point x="54" y="395"/>
      <point x="54" y="235" type="curve" smooth="yes"/>
      <point x="54" y="114"/>
      <point x="141" y="-17"/>
      <point x="272" y="-17" type="curve" smooth="yes"/>
      <point x="471" y="-17"/>
      <point x="497" y="245"/>
      <point x="497" y="364" type="curve" smooth="yes"/>
      <point x="497" y="466"/>
      <point x="490" y="586"/>
      <point x="483" y="689" type="curve" name="hr01"/>
      <point x="347" y="703" type="line"/>
      <point x="354" y="592"/>
      <point x="360" y="474"/>
      <point x="360" y="364" type="curve" smooth="yes"/>
      <point x="360" y="282"/>
      <point x="351" y="101"/>
      <point x="272" y="101" type="curve" smooth="yes"/>
      <point x="223" y="101"/>
      <point x="191" y="169"/>
      <point x="191" y="235" type="curve" smooth="yes"/>
      <point x="191" y="392"/>
      <point x="198" y="523"/>
      <point x="213" y="672" type="curve"/>
    </contour>
    <contour>
      <point x="159" y="908" type="line"/>
      <point x="160" y="890"/>
      <point x="160" y="874"/>
      <point x="160" y="854" type="curve" smooth="yes"/>
      <point x="160" y="831"/>
      <point x="155" y="810"/>
      <point x="151" y="788" type="curve"/>
      <point x="246" y="778" type="line"/>
      <point x="257" y="795"/>
      <point x="260" y="820"/>
      <point x="260" y="843" type="curve" smooth="yes"/>
      <point x="260" y="862"/>
      <point x="260" y="884"/>
      <point x="249" y="900" type="curve"/>
    </contour>
    <contour>
      <point x="314" y="910" type="line"/>
      <point x="315" y="892"/>
      <point x="315" y="876"/>
      <point x="315" y="856" type="curve" smooth="yes"/>
      <point x="315" y="833"/>
      <point x="310" y="812"/>
      <point x="306" y="790" type="curve"/>
      <point x="401" y="780" type="line"/>
      <point x="412" y="797"/>
      <point x="415" y="822"/>
      <point x="415" y="845" type="curve" smooth="yes"/>
      <point x="415" y="864"/>
      <point x="415" y="886"/>
      <point x="404" y="902" type="curve"/>
    </contour>
  </outline>
</glyph>
<glyph name="Yacute" format="1">
  <advance width="444"/>
  <unicode hex="00DD"/>
  <outline>
    <contour>
      <point x="302" y="-21" type="line" name="hr00"/>
      <point x="299" y="31"/>
      <point x="298" y="83"/>
      <point x="298" y="133" type="curve" smooth="yes"/>
      <point x="298" y="179"/>
      <point x="299" y="229"/>
      <point x="300" y="274" type="curve"/>
      <point x="373" y="427"/>
      <point x="430" y="566"/>
      <point x="478" y="703" type="curve"/>
      <point x="362" y="714" type="line"/>
      <point x="331" y="617"/>
      <point x="288" y="508"/>
      <point x="233" y="387" type="curve"/>
      <point x="185" y="494"/>
      <point x="158" y="569"/>
      <point x="141" y="655" type="curve"/>
      <point x="16" y="667" type="line"/>
      <point x="26" y="579"/>
      <point x="89" y="420"/>
      <point x="161" y="268" type="curve"/>
      <point x="161" y="191" type="line" smooth="yes"/>
      <point x="161" y="120"/>
      <point x="164" y="55"/>
      <point x="170" y="-7" type="curve"/>
    </contour>
    <contour>
      <point x="210" y="766" type="line"/>
      <point x="278" y="801"/>
      <point x="340" y="824"/>
      <point x="403" y="839" type="curve"/>
      <point x="349" y="928" type="line"/>
      <point x="280" y="898"/>
      <point x="223" y="861"/>
      <point x="165" y="823" type="curve"/>
    </contour>
  </outline>
</glyph>
<glyph name="germandbls" format="1">
  <advance width="475"/>
  <unicode hex="00DF"/>
  <outline>
    <contour>
      <point x="15" y="390" type="curve"/>
      <point x="36" y="300" type="line"/>
      <point x="46" y="303"/>
      <point x="59" y="304"/>
      <point x="72" y="307" type="curve"/>
      <point x="73" y="231"/>
      <point x="75" y="171"/>
      <point x="77" y="102" type="curve" smooth="yes"/>
      <point x="78" y="70"/>
      <point x="81" y="36"/>
      <point x="83" y="-5" type="curve"/>
      <point x="195" y="-17" type="line"/>
      <point x="195" y="28"/>
      <point x="190" y="70"/>
      <point x="189" y="106" type="curve" smooth="yes"/>
      <point x="184" y="219"/>
      <point x="183" y="332"/>
      <point x="183" y="445" type="curve" smooth="yes"/>
      <point x="183" y="559"/>
      <point x="205" y="625"/>
      <point x="238" y="625" type="curve" smooth="yes"/>
      <point x="275" y="625"/>
      <point x="298" y="579"/>
      <point x="298" y="508" type="curve" smooth="yes"/>
      <point x="298" y="451"/>
      <point x="224" y="412"/>
      <point x="224" y="331" type="curve" smooth="yes" name="hr01"/>
      <point x="224" y="248"/>
      <point x="270" y="211"/>
      <point x="304" y="182" type="curve" smooth="yes"/>
      <point x="320" y="168"/>
      <point x="330" y="145"/>
      <point x="330" y="123" type="curve" smooth="yes" name="hr02"/>
      <point x="330" y="95"/>
      <point x="314" y="81"/>
      <point x="303" y="81" type="curve" smooth="yes"/>
      <point x="292" y="81"/>
      <point x="277" y="85"/>
      <point x="269" y="90" type="curve"/>
      <point x="225" y="19" type="line"/>
      <point x="245" y="-4"/>
      <point x="280" y="-21"/>
      <point x="327" y="-21" type="curve" smooth="yes"/>
      <point x="384" y="-21"/>
      <point x="447" y="29"/>
      <point x="447" y="130" type="curve" smooth="yes"/>
      <point x="447" y="207"/>
      <point x="388" y="252"/>
      <point x="366" y="276" type="curve" smooth="yes"/>
      <point x="348" y="295"/>
      <point x="337" y="312"/>
      <point x="337" y="346" type="curve" smooth="yes" name="hr03"/>
      <point x="337" y="374"/>
      <point x="406" y="435"/>
      <point x="406" y="513" type="curve" smooth="yes" name="hr04"/>
      <point x="406" y="648"/>
      <point x="345" y="735"/>
      <point x="238" y="735" type="curve" smooth="yes"/>
      <point x="139" y="735"/>
      <point x="71" y="627"/>
      <point x="71" y="445" type="curve" smooth="yes"/>
      <point x="71" y="401" type="line"/>
      <point x="49" y="397"/>
      <point x="30" y="394"/>
    </contour>
  </outline>
</glyph>
<glyph name="acircumflex" format="1">
  <advance width="390"/>
  <unicode hex="00E2"/>
  <outline>
    <contour>
      <point x="138" y="286" type="line"/>
      <point x="146" y="326"/>
      <point x="168" y="373"/>
      <point x="195" y="373" type="curve" smooth="yes"/>
      <point x="229" y="373"/>
      <point x="233" y="328"/>
      <point x="233" y="294" type="curve" smooth="yes"/>
      <point x="233" y="267" type="line"/>
      <point x="132" y="265"/>
      <point x="33" y="203"/>
      <point x="33" y="110" type="curve" smooth="yes"/>
      <point x="33" y="38"/>
      <point x="78" y="-10"/>
      <point x="153" y="-10" type="curve" smooth="yes"/>
      <point x="185" y="-10"/>
      <point x="216" y="2"/>
      <point x="242" y="17" type="curve"/>
      <point x="250" y="-15" type="line"/>
      <point x="334" y="-22" type="line" name="hr01"/>
      <point x="341" y="85"/>
      <point x="346" y="189"/>
      <point x="346" y="280" type="curve" smooth="yes" name="hr02"/>
      <point x="346" y="385"/>
      <point x="313" y="482"/>
      <point x="207" y="482" type="curve" smooth="yes"/>
      <point x="118" y="482"/>
      <point x="64" y="388"/>
      <point x="46" y="295" type="curve"/>
    </contour>
    <contour>
      <point x="228" y="90" type="line"/>
      <point x="206" y="81"/>
      <point x="188" y="78"/>
      <point x="173" y="78" type="curve" smooth="yes"/>
      <point x="150" y="78"/>
      <point x="135" y="90"/>
      <point x="135" y="110" type="curve" smooth="yes"/>
      <point x="135" y="134"/>
      <point x="161" y="168"/>
      <point x="230" y="174" type="curve"/>
    </contour>
    <contour>
      <point x="187" y="672" type="line"/>
      <point x="139" y="630"/>
      <point x="99" y="587"/>
      <point x="59" y="542" type="curve"/>
      <point x="117" y="499" type="line"/>
      <point x="151" y="529"/>
      <point x="184" y="555"/>
      <point x="217" y="578" type="curve"/>
      <point x="243" y="557"/>
      <point x="269" y="534"/>
      <point x="298" y="508" type="curve"/>
      <point x="356" y="552" type="line"/>
      <point x="323" y="592"/>
      <point x="293" y="630"/>
      <point x="255" y="667" type="curve"/>
    </contour>
  </outline>
</glyph>
<glyph name="atilde" format="1">
  <advance width="390"/>
  <unicode hex="00E3"/>
  <outline>
    <contour>
      <point x="138" y="286" type="line"/>
      <point x="146" y="326"/>
      <point x="168" y="373"/>
      <point x="195" y="373" type="curve" smooth="yes"/>
      <point x="229" y="373"/>
      <point x="233" y="328"/>
      <point x="233" y="294" type="curve" smooth="yes"/>
      <point x="233" y="267" type="line"/>
      <point x="132" y="265"/>
      <point x="33" y="203"/>
      <point x="33" y="110" type="curve" smooth="yes"/>
      <point x="33" y="38"/>
      <point x="78" y="-10"/>
      <point x="153" y="-10" type="curve" smooth="yes"/>
      <point x="185" y="-10"/>
      <point x="216" y="2"/>
      <point x="242" y="17" type="curve"/>
      <point x="250" y="-15" type="line"/>
      <point x="334" y="-22" type="line" name="hr01"/>
      <point x="341" y="85"/>
      <point x="346" y="189"/>
      <point x="346" y="280" type="curve" smooth="yes"/>
      <point x="346" y="385"/>
      <point x="313" y="482"/>
      <point x="207" y="482" type="curve" smooth="yes"/>
      <point x="118" y="482"/>
      <point x="64" y="388"/>
      <point x="46" y="295" type="curve"/>
    </contour>
    <contour>
      <point x="228" y="90" type="line"/>
      <point x="206" y="81"/>
      <point x="188" y="78"/>
      <point x="173" y="78" type="curve" smooth="yes" name="hr02"/>
      <point x="150" y="78"/>
      <point x="135" y="90"/>
      <point x="135" y="110" type="curve" smooth="yes"/>
      <point x="135" y="134"/>
      <point x="161" y="168"/>
      <point x="230" y="174" type="curve"/>
    </contour>
    <contour>
      <point x="309" y="651" type="line"/>
      <point x="297" y="635"/>
      <point x="280" y="619"/>
      <point x="257" y="619" type="curve" smooth="yes"/>
      <point x="226" y="619"/>
      <point x="201" y="647"/>
      <point x="162" y="647" type="curve" smooth="yes" name="hr03"/>
      <point x="116" y="647"/>
      <point x="87" y="600"/>
      <point x="69" y="562" type="curve"/>
      <point x="129" y="530" type="line"/>
      <point x="141" y="542"/>
      <point x="157" y="553"/>
      <point x="179" y="553" type="curve" smooth="yes"/>
      <point x="210" y="553"/>
      <point x="228" y="535"/>
      <point x="274" y="535" type="curve" smooth="yes" name="hr04"/>
      <point x="321" y="535"/>
      <point x="365" y="594"/>
      <point x="369" y="646" type="curve"/>
    </contour>
  </outline>
</glyph>
<glyph name="adieresis" format="1">
  <advance width="390"/>
  <unicode hex="00E4"/>
  <outline>
    <contour>
      <point x="138" y="286" type="line"/>
      <point x="146" y="326"/>
      <point x="168" y="373"/>
      <point x="195" y="373" type="curve" smooth="yes"/>
      <point x="229" y="373"/>
      <point x="233" y="328"/>
      <point x="233" y="294" type="curve" smooth="yes"/>
      <point x="233" y="267" type="line"/>
      <point x="132" y="265"/>
      <point x="33" y="203"/>
      <point x="33" y="110" type="curve" smooth="yes"/>
      <point x="33" y="38"/>
      <point x="78" y="-10"/>
      <point x="153" y="-10" type="curve" smooth="yes"/>
      <point x="185" y="-10"/>
      <point x="216" y="2"/>
      <point x="242" y="17" type="curve"/>
      <point x="250" y="-15" type="line"/>
      <point x="334" y="-22" type="line" name="hr01"/>
      <point x="341" y="85"/>
      <point x="346" y="189"/>
      <point x="346" y="280" type="curve" smooth="yes" name="hr02"/>
      <point x="346" y="385"/>
      <point x="313" y="482"/>
      <point x="207" y="482" type="curve" smooth="yes"/>
      <point x="118" y="482"/>
      <point x="64" y="388"/>
      <point x="46" y="295" type="curve"/>
    </contour>
    <contour>
      <point x="228" y="90" type="line"/>
      <point x="206" y="81"/>
      <point x="188" y="78"/>
      <point x="173" y="78" type="curve" smooth="yes"/>
      <point x="150" y="78"/>
      <point x="135" y="90"/>
      <point x="135" y="110" type="curve" smooth="yes"/>
      <point x="135" y="134"/>
      <point x="161" y="168"/>
      <point x="230" y="174" type="curve"/>
    </contour>
    <contour>
      <point x="87" y="657" type="line"/>
      <point x="88" y="639"/>
      <point x="88" y="623"/>
      <point x="88" y="603" type="curve" smooth="yes" name="hr03"/>
      <point x="88" y="580"/>
      <point x="83" y="559"/>
      <point x="79" y="537" type="curve"/>
      <point x="174" y="527" type="line"/>
      <point x="185" y="544"/>
      <point x="188" y="569"/>
      <point x="188" y="592" type="curve" smooth="yes"/>
      <point x="188" y="611"/>
      <point x="188" y="633"/>
      <point x="177" y="649" type="curve"/>
    </contour>
    <contour>
      <point x="242" y="659" type="line"/>
      <point x="243" y="641"/>
      <point x="243" y="625"/>
      <point x="243" y="605" type="curve" smooth="yes"/>
      <point x="243" y="582"/>
      <point x="238" y="561"/>
      <point x="234" y="539" type="curve"/>
      <point x="329" y="529" type="line"/>
      <point x="340" y="546"/>
      <point x="343" y="571"/>
      <point x="343" y="594" type="curve" smooth="yes"/>
      <point x="343" y="613"/>
      <point x="343" y="635"/>
      <point x="332" y="651" type="curve"/>
    </contour>
  </outline>
</glyph>
<glyph name="aring" format="1">
  <advance width="391"/>
  <unicode hex="00E5"/>
  <outline>
    <contour>
      <point x="138" y="286" type="line"/>
      <point x="146" y="326"/>
      <point x="168" y="373"/>
      <point x="195" y="373" type="curve" smooth="yes"/>
      <point x="229" y="373"/>
      <point x="233" y="328"/>
      <point x="233" y="294" type="curve" smooth="yes"/>
      <point x="233" y="267" type="line"/>
      <point x="132" y="265"/>
      <point x="33" y="203"/>
      <point x="33" y="110" type="curve" smooth="yes"/>
      <point x="33" y="38"/>
      <point x="78" y="-10"/>
      <point x="153" y="-10" type="curve" smooth="yes"/>
      <point x="185" y="-10"/>
      <point x="216" y="2"/>
      <point x="242" y="17" type="curve"/>
      <point x="250" y="-15" type="line"/>
      <point x="334" y="-22" type="line" name="hr01"/>
      <point x="341" y="85"/>
      <point x="346" y="189"/>
      <point x="346" y="280" type="curve" smooth="yes" name="hr02"/>
      <point x="346" y="385"/>
      <point x="313" y="482"/>
      <point x="207" y="482" type="curve" smooth="yes"/>
      <point x="118" y="482"/>
      <point x="64" y="388"/>
      <point x="46" y="295" type="curve"/>
    </contour>
    <contour>
      <point x="228" y="90" type="line"/>
      <point x="206" y="81"/>
      <point x="188" y="78"/>
      <point x="173" y="78" type="curve" smooth="yes"/>
      <point x="150" y="78"/>
      <point x="135" y="90"/>
      <point x="135" y="110" type="curve" smooth="yes"/>
      <point x="135" y="134"/>
      <point x="161" y="168"/>
      <point x="230" y="174" type="curve"/>
    </contour>
    <contour>
      <point x="208" y="566" type="curve" smooth="yes"/>
      <point x="186" y="566"/>
      <point x="169" y="581"/>
      <point x="169" y="609" type="curve" smooth="yes" name="hr03"/>
      <point x="169" y="638"/>
      <point x="188" y="671"/>
      <point x="222" y="671" type="curve" smooth="yes"/>
      <point x="244" y="671"/>
      <point x="261" y="657"/>
      <point x="261" y="629" type="curve" smooth="yes"/>
      <point x="261" y="600"/>
      <point x="242" y="566"/>
    </contour>
    <contour>
      <point x="206" y="511" type="curve" smooth="yes"/>
      <point x="284" y="511"/>
      <point x="331" y="574"/>
      <point x="331" y="631" type="curve" smooth="yes"/>
      <point x="331" y="688"/>
      <point x="285" y="726"/>
      <point x="224" y="726" type="curve" smooth="yes"/>
      <point x="147" y="726"/>
      <point x="99" y="664"/>
      <point x="99" y="606" type="curve" smooth="yes"/>
      <point x="99" y="550"/>
      <point x="145" y="511"/>
    </contour>
  </outline>
</glyph>
<glyph name="ae" format="1">
  <advance width="544"/>
  <unicode hex="00E6"/>
  <outline>
    <contour>
      <point x="207" y="482" type="curve" smooth="yes"/>
      <point x="118" y="482"/>
      <point x="64" y="388"/>
      <point x="46" y="295" type="curve"/>
      <point x="138" y="286" type="line"/>
      <point x="146" y="326"/>
      <point x="168" y="373"/>
      <point x="195" y="373" type="curve" smooth="yes" name="hr01"/>
      <point x="229" y="373"/>
      <point x="233" y="328"/>
      <point x="233" y="294" type="curve" smooth="yes"/>
      <point x="233" y="267" type="line"/>
      <point x="132" y="265"/>
      <point x="33" y="203"/>
      <point x="33" y="110" type="curve" smooth="yes"/>
      <point x="33" y="38"/>
      <point x="78" y="-10"/>
      <point x="153" y="-10" type="curve" smooth="yes"/>
      <point x="206" y="-10"/>
      <point x="245" y="2"/>
      <point x="273" y="24" type="curve"/>
      <point x="298" y="-5"/>
      <point x="331" y="-21"/>
      <point x="367" y="-21" type="curve" smooth="yes" name="hr02"/>
      <point x="459" y="-21"/>
      <point x="505" y="48"/>
      <point x="534" y="100" type="curve"/>
      <point x="458" y="145" type="line"/>
      <point x="439" y="113"/>
      <point x="411" y="72"/>
      <point x="377" y="72" type="curve" smooth="yes" name="hr03"/>
      <point x="358" y="72"/>
      <point x="341" y="105"/>
      <point x="337" y="160" type="curve"/>
      <point x="402" y="169"/>
      <point x="494" y="186"/>
      <point x="544" y="200" type="curve"/>
      <point x="543" y="276"/>
      <point x="545" y="477"/>
      <point x="399" y="477" type="curve" smooth="yes"/>
      <point x="358" y="477"/>
      <point x="326" y="462"/>
      <point x="301" y="437" type="curve"/>
      <point x="279" y="465"/>
      <point x="249" y="482"/>
    </contour>
    <contour>
      <point x="399" y="379" type="curve" smooth="yes"/>
      <point x="422" y="379"/>
      <point x="431" y="317"/>
      <point x="431" y="254" type="curve"/>
      <point x="401" y="246"/>
      <point x="369" y="239"/>
      <point x="339" y="233" type="curve"/>
      <point x="343" y="307"/>
      <point x="368" y="379"/>
    </contour>
    <contour>
      <point x="228" y="90" type="line"/>
      <point x="206" y="81"/>
      <point x="188" y="78"/>
      <point x="173" y="78" type="curve" smooth="yes"/>
      <point x="150" y="78"/>
      <point x="135" y="90"/>
      <point x="135" y="110" type="curve" smooth="yes"/>
      <point x="135" y="134"/>
      <point x="161" y="168"/>
      <point x="230" y="174" type="curve"/>
    </contour>
  </outline>
</glyph>
<glyph name="ecircumflex" format="1">
  <advance width="367"/>
  <unicode hex="00EA"/>
  <outline>
    <contour>
      <point x="351" y="200" type="curve" name="hr00"/>
      <point x="350" y="276"/>
      <point x="352" y="477"/>
      <point x="206" y="477" type="curve" smooth="yes"/>
      <point x="67" y="477"/>
      <point x="25" y="297"/>
      <point x="25" y="177" type="curve" smooth="yes"/>
      <point x="25" y="51"/>
      <point x="94" y="-21"/>
      <point x="174" y="-21" type="curve" smooth="yes"/>
      <point x="266" y="-21"/>
      <point x="312" y="48"/>
      <point x="341" y="100" type="curve"/>
      <point x="265" y="145" type="line"/>
      <point x="246" y="113"/>
      <point x="218" y="72"/>
      <point x="184" y="72" type="curve" smooth="yes"/>
      <point x="165" y="72"/>
      <point x="148" y="105"/>
      <point x="144" y="160" type="curve"/>
      <point x="209" y="169"/>
      <point x="301" y="186"/>
    </contour>
    <contour>
      <point x="206" y="379" type="curve" smooth="yes"/>
      <point x="229" y="379"/>
      <point x="238" y="317"/>
      <point x="238" y="254" type="curve"/>
      <point x="208" y="246"/>
      <point x="176" y="239"/>
      <point x="146" y="233" type="curve"/>
      <point x="150" y="307"/>
      <point x="175" y="379"/>
    </contour>
    <contour>
      <point x="178" y="672" type="line"/>
      <point x="130" y="630"/>
      <point x="90" y="587"/>
      <point x="50" y="542" type="curve"/>
      <point x="108" y="499" type="line"/>
      <point x="142" y="529"/>
      <point x="175" y="555"/>
      <point x="208" y="578" type="curve"/>
      <point x="234" y="557"/>
      <point x="260" y="534"/>
      <point x="289" y="508" type="curve"/>
      <point x="347" y="552" type="line"/>
      <point x="314" y="592"/>
      <point x="284" y="630"/>
      <point x="246" y="667" type="curve"/>
    </contour>
  </outline>
</glyph>
<glyph name="iacute" format="1">
  <advance width="236"/>
  <unicode hex="00ED"/>
  <outline>
    <contour>
      <point x="69" y="477" type="line" name="hr00"/>
      <point x="69" y="-3" type="line"/>
      <point x="183" y="-14" type="line"/>
      <point x="183" y="466" type="line"/>
    </contour>
    <contour>
      <point x="107" y="515" type="line"/>
      <point x="175" y="550"/>
      <point x="237" y="573"/>
      <point x="300" y="588" type="curve"/>
      <point x="246" y="677" type="line"/>
      <point x="177" y="647"/>
      <point x="120" y="610"/>
      <point x="62" y="572" type="curve"/>
    </contour>
  </outline>
</glyph>
<glyph name="icircumflex" format="1">
  <advance width="236"/>
  <unicode hex="00EE"/>
  <outline>
    <contour>
      <point x="69" y="477" type="line" name="hr00"/>
      <point x="69" y="-3" type="line"/>
      <point x="183" y="-14" type="line"/>
      <point x="183" y="466" type="line"/>
    </contour>
    <contour>
      <point x="100" y="672" type="line"/>
      <point x="52" y="630"/>
      <point x="12" y="587"/>
      <point x="-28" y="542" type="curve"/>
      <point x="30" y="499" type="line"/>
      <point x="64" y="529"/>
      <point x="97" y="555"/>
      <point x="130" y="578" type="curve"/>
      <point x="156" y="557"/>
      <point x="182" y="534"/>
      <point x="211" y="508" type="curve"/>
      <point x="269" y="552" type="line"/>
      <point x="236" y="592"/>
      <point x="206" y="630"/>
      <point x="168" y="667" type="curve"/>
    </contour>
  </outline>
</glyph>
<glyph name="odieresis" format="1">
  <advance width="368"/>
  <unicode hex="00F6"/>
  <outline>
    <contour>
      <point x="141" y="180" type="curve" smooth="yes" name="hr00"/>
      <point x="141" y="248"/>
      <point x="161" y="380"/>
      <point x="201" y="380" type="curve" smooth="yes"/>
      <point x="234" y="380"/>
      <point x="243" y="313"/>
      <point x="243" y="262" type="curve" smooth="yes"/>
      <point x="243" y="179"/>
      <point x="222" y="67"/>
      <point x="191" y="67" type="curve" smooth="yes"/>
      <point x="166" y="67"/>
      <point x="141" y="89"/>
    </contour>
    <contour>
      <point x="24" y="189" type="curve" smooth="yes"/>
      <point x="24" y="17"/>
      <point x="105" y="-26"/>
      <point x="191" y="-26" type="curve" smooth="yes"/>
      <point x="306" y="-26"/>
      <point x="360" y="122"/>
      <point x="360" y="252" type="curve" smooth="yes"/>
      <point x="360" y="347"/>
      <point x="325" y="473"/>
      <point x="201" y="473" type="curve" smooth="yes"/>
      <point x="70" y="473"/>
      <point x="24" y="297"/>
    </contour>
    <contour>
      <point x="67" y="657" type="line"/>
      <point x="68" y="639"/>
      <point x="68" y="623"/>
      <point x="68" y="603" type="curve" smooth="yes"/>
      <point x="68" y="580"/>
      <point x="63" y="559"/>
      <point x="59" y="537" type="curve"/>
      <point x="154" y="527" type="line"/>
      <point x="165" y="544"/>
      <point x="168" y="569"/>
      <point x="168" y="592" type="curve" smooth="yes"/>
      <point x="168" y="611"/>
      <point x="168" y="633"/>
      <point x="157" y="649" type="curve"/>
    </contour>
    <contour>
      <point x="222" y="659" type="line"/>
      <point x="223" y="641"/>
      <point x="223" y="625"/>
      <point x="223" y="605" type="curve" smooth="yes"/>
      <point x="223" y="582"/>
      <point x="218" y="561"/>
      <point x="214" y="539" type="curve"/>
      <point x="309" y="529" type="line"/>
      <point x="320" y="546"/>
      <point x="323" y="571"/>
      <point x="323" y="594" type="curve" smooth="yes"/>
      <point x="323" y="613"/>
      <point x="323" y="635"/>
      <point x="312" y="651" type="curve"/>
    </contour>
  </outline>
</glyph>
<glyph name="yacute" format="1">
  <advance width="376"/>
  <unicode hex="00FD"/>
  <outline>
    <contour>
      <point x="287" y="501" type="line" name="hr00"/>
      <point x="254" y="387"/>
      <point x="225" y="268"/>
      <point x="195" y="130" type="curve"/>
      <point x="170" y="227"/>
      <point x="156" y="330"/>
      <point x="147" y="444" type="curve"/>
      <point x="35" y="455" type="line"/>
      <point x="49" y="295"/>
      <point x="83" y="130"/>
      <point x="156" y="-9" type="curve"/>
      <point x="138" y="-77"/>
      <point x="119" y="-149"/>
      <point x="103" y="-227" type="curve"/>
      <point x="213" y="-237" type="line"/>
      <point x="264" y="13"/>
      <point x="323" y="260"/>
      <point x="383" y="445" type="curve"/>
    </contour>
    <contour>
      <point x="168" y="515" type="line"/>
      <point x="236" y="550"/>
      <point x="298" y="573"/>
      <point x="361" y="588" type="curve"/>
      <point x="307" y="677" type="line"/>
      <point x="238" y="647"/>
      <point x="181" y="610"/>
      <point x="123" y="572" type="curve"/>
    </contour>
  </outline>
</glyph>
<glyph name="ydieresis" format="1">
  <advance width="376"/>
  <unicode hex="00FF"/>
  <outline>
    <contour>
      <point x="287" y="501" type="line" name="hr00"/>
      <point x="254" y="387"/>
      <point x="225" y="268"/>
      <point x="195" y="130" type="curve"/>
      <point x="170" y="227"/>
      <point x="156" y="330"/>
      <point x="147" y="444" type="curve"/>
      <point x="35" y="455" type="line"/>
      <point x="49" y="295"/>
      <point x="83" y="130"/>
      <point x="156" y="-9" type="curve"/>
      <point x="138" y="-77"/>
      <point x="119" y="-149"/>
      <point x="103" y="-227" type="curve"/>
      <point x="213" y="-237" type="line"/>
      <point x="264" y="13"/>
      <point x="323" y="260"/>
      <point x="383" y="445" type="curve"/>
    </contour>
    <contour>
      <point x="91" y="657" type="line"/>
      <point x="92" y="639"/>
      <point x="92" y="623"/>
      <point x="92" y="603" type="curve" smooth="yes"/>
      <point x="92" y="580"/>
      <point x="87" y="559"/>
      <point x="83" y="537" type="curve"/>
      <point x="178" y="527" type="line"/>
      <point x="189" y="544"/>
      <point x="192" y="569"/>
      <point x="192" y="592" type="curve" smooth="yes"/>
      <point x="192" y="611"/>
      <point x="192" y="633"/>
      <point x="181" y="649" type="curve"/>
    </contour>
    <contour>
      <point x="246" y="659" type="line"/>
      <point x="247" y="641"/>
      <point x="247" y="625"/>
      <point x="247" y="605" type="curve" smooth="yes"/>
      <point x="247" y="582"/>
      <point x="242" y="561"/>
      <point x="238" y="539" type="curve"/>
      <point x="333" y="529" type="line"/>
      <point x="344" y="546"/>
      <point x="347" y="571"/>
      <point x="347" y="594" type="curve" smooth="yes"/>
      <point x="347" y="613"/>
      <point x="347" y="635"/>
      <point x="336" y="651" type="curve"/>
    </contour>
  </outline>
</glyph>
<glyph name="cacute" format="1">
  <advance width="354"/>
  <unicode hex="0107"/>
  <outline>
    <contour>
      <point x="327" y="247" type="line" name="hr00"/>
      <point x="333" y="261"/>
      <point x="336" y="278"/>
      <point x="336" y="297" type="curve" smooth="yes"/>
      <point x="336" y="379"/>
      <point x="289" y="477"/>
      <point x="202" y="477" type="curve" smooth="yes"/>
      <point x="64" y="477"/>
      <point x="32" y="264"/>
      <point x="32" y="161" type="curve" smooth="yes"/>
      <point x="32" y="29"/>
      <point x="112" y="-21"/>
      <point x="186" y="-21" type="curve" smooth="yes"/>
      <point x="257" y="-21"/>
      <point x="311" y="45"/>
      <point x="345" y="138" type="curve"/>
      <point x="271" y="191" type="line"/>
      <point x="239" y="130"/>
      <point x="209" y="86"/>
      <point x="186" y="86" type="curve" smooth="yes"/>
      <point x="168" y="86"/>
      <point x="149" y="107"/>
      <point x="149" y="161" type="curve" smooth="yes"/>
      <point x="149" y="227"/>
      <point x="159" y="360"/>
      <point x="202" y="360" type="curve" smooth="yes"/>
      <point x="221" y="360"/>
      <point x="234" y="321"/>
      <point x="234" y="288" type="curve" smooth="yes"/>
      <point x="234" y="277"/>
      <point x="233" y="263"/>
      <point x="232" y="256" type="curve"/>
    </contour>
    <contour>
      <point x="176" y="515" type="line"/>
      <point x="244" y="550"/>
      <point x="306" y="573"/>
      <point x="369" y="588" type="curve"/>
      <point x="315" y="677" type="line"/>
      <point x="246" y="647"/>
      <point x="189" y="610"/>
      <point x="131" y="572" type="curve"/>
    </contour>
  </outline>
</glyph>
<glyph name="ccaron" format="1">
  <advance width="354"/>
  <unicode hex="010D"/>
  <outline>
    <contour>
      <point x="327" y="247" type="line" name="hr00"/>
      <point x="333" y="261"/>
      <point x="336" y="278"/>
      <point x="336" y="297" type="curve" smooth="yes"/>
      <point x="336" y="379"/>
      <point x="289" y="477"/>
      <point x="202" y="477" type="curve" smooth="yes"/>
      <point x="64" y="477"/>
      <point x="32" y="264"/>
      <point x="32" y="161" type="curve" smooth="yes"/>
      <point x="32" y="29"/>
      <point x="112" y="-21"/>
      <point x="186" y="-21" type="curve" smooth="yes"/>
      <point x="257" y="-21"/>
      <point x="311" y="45"/>
      <point x="345" y="138" type="curve"/>
      <point x="271" y="191" type="line"/>
      <point x="239" y="130"/>
      <point x="209" y="86"/>
      <point x="186" y="86" type="curve" smooth="yes"/>
      <point x="168" y="86"/>
      <point x="149" y="107"/>
      <point x="149" y="161" type="curve" smooth="yes"/>
      <point x="149" y="227"/>
      <point x="159" y="360"/>
      <point x="202" y="360" type="curve" smooth="yes"/>
      <point x="221" y="360"/>
      <point x="234" y="321"/>
      <point x="234" y="288" type="curve" smooth="yes"/>
      <point x="234" y="277"/>
      <point x="233" y="263"/>
      <point x="232" y="256" type="curve"/>
    </contour>
    <contour>
      <point x="224" y="519" type="line"/>
      <point x="272" y="561"/>
      <point x="312" y="604"/>
      <point x="352" y="649" type="curve"/>
      <point x="294" y="692" type="line"/>
      <point x="260" y="662"/>
      <point x="227" y="636"/>
      <point x="194" y="613" type="curve"/>
      <point x="168" y="634"/>
      <point x="142" y="657"/>
      <point x="113" y="683" type="curve"/>
      <point x="55" y="639" type="line"/>
      <point x="88" y="599"/>
      <point x="118" y="561"/>
      <point x="156" y="524" type="curve"/>
    </contour>
  </outline>
</glyph>
<glyph name="Gbreve" format="1">
  <advance width="498"/>
  <unicode hex="011E"/>
  <outline>
    <contour>
      <point x="450" y="387" type="line"/>
      <point x="456" y="419"/>
      <point x="459" y="449"/>
      <point x="459" y="476" type="curve" smooth="yes"/>
      <point x="459" y="649"/>
      <point x="344" y="703"/>
      <point x="268" y="703" type="curve" smooth="yes"/>
      <point x="127" y="703"/>
      <point x="40" y="497"/>
      <point x="40" y="282" type="curve" smooth="yes"/>
      <point x="40" y="80"/>
      <point x="133" y="-28"/>
      <point x="269" y="-28" type="curve" smooth="yes"/>
      <point x="397" y="-28"/>
      <point x="481" y="148"/>
      <point x="481" y="253" type="curve" smooth="yes"/>
      <point x="481" y="256"/>
      <point x="478" y="310"/>
      <point x="475" y="336" type="curve"/>
      <point x="399" y="327"/>
      <point x="326" y="319"/>
      <point x="247" y="314" type="curve"/>
      <point x="268" y="215" type="line"/>
      <point x="297" y="220"/>
      <point x="317" y="222"/>
      <point x="345" y="222" type="curve"/>
      <point x="333" y="138"/>
      <point x="312" y="80"/>
      <point x="254" y="80" type="curve" smooth="yes"/>
      <point x="204" y="80"/>
      <point x="177" y="162"/>
      <point x="177" y="306" type="curve" smooth="yes"/>
      <point x="177" y="438"/>
      <point x="232" y="585"/>
      <point x="278" y="585" type="curve" smooth="yes"/>
      <point x="320" y="585"/>
      <point x="337" y="518"/>
      <point x="337" y="454" type="curve" smooth="yes"/>
      <point x="337" y="433"/>
      <point x="336" y="412"/>
      <point x="333" y="397" type="curve"/>
    </contour>
    <contour>
      <point x="147" y="906" type="line" name="hr01"/>
      <point x="147" y="828"/>
      <point x="193" y="772"/>
      <point x="270" y="772" type="curve" smooth="yes"/>
      <point x="342" y="772"/>
      <point x="408" y="837"/>
      <point x="408" y="906" type="curve"/>
      <point x="333" y="912" type="line"/>
      <point x="333" y="875"/>
      <point x="303" y="844"/>
      <point x="270" y="844" type="curve" smooth="yes"/>
      <point x="240" y="844"/>
      <point x="222" y="869"/>
      <point x="222" y="900" type="curve"/>
    </contour>
  </outline>
</glyph>
<glyph name="Itilde" format="1">
  <advance width="289"/>
  <unicode hex="0128"/>
  <outline>
    <contour>
      <point x="98" y="704" type="line"/>
      <point x="92" y="581"/>
      <point x="89" y="476"/>
      <point x="89" y="368" type="curve" smooth="yes"/>
      <point x="89" y="249"/>
      <point x="93" y="128"/>
      <point x="102" y="-13" type="curve" name="hr01"/>
      <point x="237" y="-25" type="line"/>
      <point x="228" y="88"/>
      <point x="224" y="219"/>
      <point x="224" y="351" type="curve" smooth="yes"/>
      <point x="224" y="469"/>
      <point x="227" y="587"/>
      <point x="233" y="692" type="curve"/>
    </contour>
    <contour>
      <point x="248" y="873" type="line"/>
      <point x="236" y="857"/>
      <point x="219" y="841"/>
      <point x="196" y="841" type="curve" smooth="yes"/>
      <point x="165" y="841"/>
      <point x="140" y="869"/>
      <point x="101" y="869" type="curve" smooth="yes" name="hr02"/>
      <point x="55" y="869"/>
      <point x="26" y="822"/>
      <point x="8" y="784" type="curve"/>
      <point x="68" y="752" type="line"/>
      <point x="80" y="764"/>
      <point x="96" y="775"/>
      <point x="118" y="775" type="curve" smooth="yes"/>
      <point x="149" y="775"/>
      <point x="167" y="757"/>
      <point x="213" y="757" type="curve" smooth="yes" name="hr03"/>
      <point x="260" y="757"/>
      <point x="304" y="816"/>
      <point x="308" y="868" type="curve"/>
    </contour>
  </outline>
</glyph>
<glyph name="itilde" format="1">
  <advance width="236"/>
  <unicode hex="0129"/>
  <outline>
    <contour>
      <point x="69" y="477" type="line"/>
      <point x="69" y="-3" type="line"/>
      <point x="183" y="-14" type="line"/>
      <point x="183" y="466" type="line"/>
    </contour>
    <contour>
      <point x="208" y="651" type="line"/>
      <point x="196" y="635"/>
      <point x="179" y="619"/>
      <point x="156" y="619" type="curve" smooth="yes"/>
      <point x="125" y="619"/>
      <point x="100" y="647"/>
      <point x="61" y="647" type="curve" smooth="yes" name="hr01"/>
      <point x="15" y="647"/>
      <point x="-14" y="600"/>
      <point x="-32" y="562" type="curve"/>
      <point x="28" y="530" type="line"/>
      <point x="40" y="542"/>
      <point x="56" y="553"/>
      <point x="78" y="553" type="curve" smooth="yes"/>
      <point x="109" y="553"/>
      <point x="127" y="535"/>
      <point x="173" y="535" type="curve" smooth="yes" name="hr02"/>
      <point x="220" y="535"/>
      <point x="264" y="594"/>
      <point x="268" y="646" type="curve"/>
    </contour>
  </outline>
</glyph>
<glyph name="dotlessi" format="1">
  <advance width="236"/>
  <unicode hex="0131"/>
  <outline>
    <contour>
      <point x="69" y="477" type="line" name="hr00"/>
      <point x="69" y="-3" type="line"/>
      <point x="183" y="-14" type="line"/>
      <point x="183" y="466" type="line"/>
    </contour>
  </outline>
</glyph>
<glyph name="ij" format="1">
  <advance width="488"/>
  <unicode hex="0133"/>
  <outline>
    <contour>
      <point x="69" y="477" type="line" name="hr00"/>
      <point x="69" y="-3" type="line"/>
      <point x="183" y="-14" type="line"/>
      <point x="183" y="466" type="line"/>
    </contour>
    <contour>
      <point x="77" y="653" type="line"/>
      <point x="67" y="542" type="line"/>
      <point x="179" y="528" type="line"/>
      <point x="189" y="640" type="line"/>
    </contour>
    <contour>
      <point x="322" y="468" type="line"/>
      <point x="327" y="326"/>
      <point x="327" y="73"/>
      <point x="327" y="-15" type="curve" smooth="yes"/>
      <point x="327" y="-91"/>
      <point x="302" y="-128"/>
      <point x="278" y="-128" type="curve" smooth="yes"/>
      <point x="268" y="-128"/>
      <point x="245" y="-117"/>
      <point x="220" y="-98" type="curve"/>
      <point x="185" y="-175" type="line"/>
      <point x="222" y="-221"/>
      <point x="277" y="-245"/>
      <point x="306" y="-245" type="curve" smooth="yes"/>
      <point x="373" y="-245"/>
      <point x="439" y="-167"/>
      <point x="439" y="-5" type="curve" smooth="yes"/>
      <point x="439" y="77"/>
      <point x="438" y="323"/>
      <point x="430" y="457" type="curve"/>
    </contour>
    <contour>
      <point x="328" y="653" type="line"/>
      <point x="318" y="542" type="line"/>
      <point x="430" y="528" type="line"/>
      <point x="440" y="640" type="line"/>
    </contour>
  </outline>
</glyph>
<glyph name="Jcircumflex" format="1">
  <advance width="410"/>
  <unicode hex="0134"/>
  <outline>
    <contour>
      <point x="10" y="241" type="line"/>
      <point x="5" y="218"/>
      <point x="2" y="196"/>
      <point x="2" y="174" type="curve" smooth="yes"/>
      <point x="2" y="62"/>
      <point x="73" y="-30"/>
      <point x="188" y="-30" type="curve" smooth="yes"/>
      <point x="321" y="-30"/>
      <point x="367" y="138"/>
      <point x="367" y="240" type="curve" smooth="yes"/>
      <point x="367" y="349"/>
      <point x="367" y="509"/>
      <point x="353" y="689" type="curve" name="hr01"/>
      <point x="212" y="701" type="line"/>
      <point x="226" y="521"/>
      <point x="230" y="349"/>
      <point x="230" y="240" type="curve" smooth="yes" name="hr02"/>
      <point x="230" y="184"/>
      <point x="218" y="92"/>
      <point x="173" y="92" type="curve" smooth="yes"/>
      <point x="144" y="92"/>
      <point x="124" y="133"/>
      <point x="124" y="186" type="curve" smooth="yes"/>
      <point x="124" y="199"/>
      <point x="125" y="214"/>
      <point x="128" y="229" type="curve"/>
    </contour>
    <contour>
      <point x="245" y="894" type="line"/>
      <point x="197" y="852"/>
      <point x="157" y="809"/>
      <point x="117" y="764" type="curve"/>
      <point x="175" y="721" type="line"/>
      <point x="209" y="751"/>
      <point x="242" y="777"/>
      <point x="275" y="800" type="curve"/>
      <point x="301" y="779"/>
      <point x="327" y="756"/>
      <point x="356" y="730" type="curve"/>
      <point x="414" y="774" type="line"/>
      <point x="381" y="814"/>
      <point x="351" y="852"/>
      <point x="313" y="889" type="curve"/>
    </contour>
  </outline>
</glyph>
<glyph name="jcircumflex" format="1">
  <advance width="252"/>
  <unicode hex="0135"/>
  <outline>
    <contour>
      <point x="86" y="468" type="line" name="hr00"/>
      <point x="91" y="326"/>
      <point x="91" y="73"/>
      <point x="91" y="-15" type="curve" smooth="yes"/>
      <point x="91" y="-84"/>
      <point x="66" y="-118"/>
      <point x="42" y="-118" type="curve" smooth="yes"/>
      <point x="32" y="-118"/>
      <point x="9" y="-107"/>
      <point x="-16" y="-88" type="curve"/>
      <point x="-51" y="-165" type="line"/>
      <point x="-8" y="-216"/>
      <point x="57" y="-245"/>
      <point x="90" y="-245" type="curve" smooth="yes"/>
      <point x="147" y="-245"/>
      <point x="203" y="-167"/>
      <point x="203" y="-5" type="curve" smooth="yes"/>
      <point x="203" y="77"/>
      <point x="202" y="323"/>
      <point x="194" y="457" type="curve"/>
    </contour>
    <contour>
      <point x="99" y="672" type="line"/>
      <point x="51" y="630"/>
      <point x="11" y="587"/>
      <point x="-29" y="542" type="curve"/>
      <point x="29" y="499" type="line"/>
      <point x="63" y="529"/>
      <point x="96" y="555"/>
      <point x="129" y="578" type="curve"/>
      <point x="155" y="557"/>
      <point x="181" y="534"/>
      <point x="210" y="508" type="curve"/>
      <point x="268" y="552" type="line"/>
      <point x="235" y="592"/>
      <point x="205" y="630"/>
      <point x="167" y="667" type="curve"/>
    </contour>
  </outline>
</glyph>
<glyph name="kcommaaccent" format="1">
  <advance width="410"/>
  <unicode hex="0137"/>
  <outline>
    <contour>
      <point x="332" y="497" type="line"/>
      <point x="297" y="417"/>
      <point x="246" y="336"/>
      <point x="176" y="250" type="curve"/>
      <point x="176" y="415"/>
      <point x="182" y="575"/>
      <point x="191" y="722" type="curve" name="hr01"/>
      <point x="74" y="731" type="line"/>
      <point x="64" y="580"/>
      <point x="59" y="405"/>
      <point x="59" y="235" type="curve" smooth="yes" name="hr02"/>
      <point x="59" y="154"/>
      <point x="60" y="70"/>
      <point x="63" y="-8" type="curve"/>
      <point x="180" y="-19" type="line"/>
      <point x="177" y="44"/>
      <point x="176" y="110"/>
      <point x="176" y="176" type="curve"/>
      <point x="242" y="107"/>
      <point x="295" y="47"/>
      <point x="340" y="-23" type="curve"/>
      <point x="416" y="49" type="line"/>
      <point x="380" y="111"/>
      <point x="341" y="162"/>
      <point x="292" y="219" type="curve"/>
      <point x="340" y="285"/>
      <point x="381" y="355"/>
      <point x="412" y="427" type="curve"/>
    </contour>
    <contour>
      <point x="175" y="-61" type="line"/>
      <point x="170" y="-123"/>
      <point x="162" y="-170"/>
      <point x="148" y="-238" type="curve"/>
      <point x="200" y="-246" type="line"/>
      <point x="242" y="-192"/>
      <point x="277" y="-146"/>
      <point x="288" y="-92" type="curve"/>
    </contour>
  </outline>
</glyph>
<glyph name="kgreenlandic" format="1">
  <advance width="410"/>
  <unicode hex="0138"/>
  <outline>
    <contour>
      <point x="332" y="497" type="line" name="hr00"/>
      <point x="297" y="417"/>
      <point x="246" y="336"/>
      <point x="176" y="250" type="curve"/>
      <point x="176" y="328"/>
      <point x="182" y="400"/>
      <point x="191" y="472" type="curve"/>
      <point x="74" y="481" type="line"/>
      <point x="64" y="405"/>
      <point x="59" y="321"/>
      <point x="59" y="235" type="curve" smooth="yes"/>
      <point x="59" y="154"/>
      <point x="60" y="70"/>
      <point x="63" y="-8" type="curve"/>
      <point x="180" y="-19" type="line"/>
      <point x="177" y="44"/>
      <point x="176" y="110"/>
      <point x="176" y="176" type="curve"/>
      <point x="242" y="107"/>
      <point x="295" y="47"/>
      <point x="340" y="-23" type="curve"/>
      <point x="416" y="49" type="line"/>
      <point x="380" y="111"/>
      <point x="341" y="162"/>
      <point x="292" y="219" type="curve"/>
      <point x="340" y="285"/>
      <point x="381" y="355"/>
      <point x="412" y="427" type="curve"/>
    </contour>
  </outline>
</glyph>
<glyph name="Ldotaccent" format="1">
  <advance width="439"/>
  <unicode hex="013F"/>
  <outline>
    <contour>
      <point x="191" y="-3" type="line"/>
      <point x="280" y="11"/>
      <point x="341" y="20"/>
      <point x="403" y="27" type="curve"/>
      <point x="383" y="143" type="line"/>
      <point x="326" y="137"/>
      <point x="262" y="131"/>
      <point x="206" y="123" type="curve"/>
      <point x="201" y="197"/>
      <point x="201" y="272"/>
      <point x="201" y="345" type="curve" smooth="yes"/>
      <point x="201" y="455"/>
      <point x="206" y="568"/>
      <point x="216" y="683" type="curve"/>
      <point x="83" y="695" type="line"/>
      <point x="75" y="593"/>
      <point x="72" y="489"/>
      <point x="72" y="385" type="curve" smooth="yes"/>
      <point x="72" y="261"/>
      <point x="77" y="133"/>
      <point x="85" y="6" type="curve" name="hr01"/>
    </contour>
    <contour>
      <point x="311" y="421" type="line"/>
      <point x="312" y="403"/>
      <point x="312" y="387"/>
      <point x="312" y="367" type="curve" smooth="yes" name="hr02"/>
      <point x="312" y="344"/>
      <point x="307" y="323"/>
      <point x="303" y="301" type="curve"/>
      <point x="413" y="291" type="line"/>
      <point x="423" y="308"/>
      <point x="427" y="333"/>
      <point x="427" y="356" type="curve" smooth="yes"/>
      <point x="427" y="375"/>
      <point x="427" y="396"/>
      <point x="416" y="412" type="curve"/>
    </contour>
  </outline>
</glyph>
<glyph name="lslash" format="1">
  <advance width="271"/>
  <unicode hex="0142"/>
  <outline>
    <contour>
      <point x="79" y="731" type="line"/>
      <point x="72" y="619"/>
      <point x="67" y="495"/>
      <point x="65" y="369" type="curve" name="hr01"/>
      <point x="34" y="341"/>
      <point x="7" y="315"/>
      <point x="-17" y="291" type="curve"/>
      <point x="28" y="231" type="line"/>
      <point x="64" y="267" type="line"/>
      <point x="64" y="235" type="line" smooth="yes"/>
      <point x="64" y="154"/>
      <point x="65" y="70"/>
      <point x="68" y="-8" type="curve"/>
      <point x="186" y="-19" type="line"/>
      <point x="181" y="63"/>
      <point x="181" y="150"/>
      <point x="181" y="235" type="curve" smooth="yes"/>
      <point x="181" y="336" type="line"/>
      <point x="224" y="365"/>
      <point x="268" y="392"/>
      <point x="312" y="415" type="curve"/>
      <point x="255" y="479" type="line"/>
      <point x="230" y="464"/>
      <point x="206" y="449"/>
      <point x="183" y="434" type="curve"/>
      <point x="186" y="534"/>
      <point x="190" y="630"/>
      <point x="196" y="722" type="curve" name="hr02"/>
    </contour>
  </outline>
</glyph>
<glyph name="nacute" format="1">
  <advance width="424"/>
  <unicode hex="0144"/>
  <outline>
    <contour>
      <point x="51" y="433" type="line" name="hr00"/>
      <point x="47" y="376"/>
      <point x="45" y="321"/>
      <point x="45" y="264" type="curve" smooth="yes"/>
      <point x="45" y="174"/>
      <point x="49" y="83"/>
      <point x="56" y="-7" type="curve"/>
      <point x="173" y="-18" type="line"/>
      <point x="170" y="33"/>
      <point x="167" y="82"/>
      <point x="165" y="130" type="curve"/>
      <point x="173" y="236"/>
      <point x="217" y="368"/>
      <point x="237" y="368" type="curve" smooth="yes"/>
      <point x="263" y="368"/>
      <point x="270" y="299"/>
      <point x="270" y="237" type="curve" smooth="yes"/>
      <point x="270" y="170"/>
      <point x="267" y="104"/>
      <point x="259" y="21" type="curve"/>
      <point x="376" y="10" type="line"/>
      <point x="385" y="100"/>
      <point x="389" y="184"/>
      <point x="389" y="256" type="curve" smooth="yes"/>
      <point x="389" y="358"/>
      <point x="369" y="476"/>
      <point x="257" y="476" type="curve" smooth="yes"/>
      <point x="213" y="476"/>
      <point x="173" y="426"/>
      <point x="140" y="360" type="curve"/>
      <point x="135" y="381"/>
      <point x="129" y="403"/>
      <point x="125" y="425" type="curve"/>
    </contour>
    <contour>
      <point x="148" y="515" type="line"/>
      <point x="216" y="550"/>
      <point x="278" y="573"/>
      <point x="341" y="588" type="curve"/>
      <point x="287" y="677" type="line"/>
      <point x="218" y="647"/>
      <point x="161" y="610"/>
      <point x="103" y="572" type="curve"/>
    </contour>
  </outline>
</glyph>
<glyph name="OE" format="1">
  <advance width="705"/>
  <unicode hex="0152"/>
  <outline>
    <contour>
      <point x="711" y="131" type="line"/>
      <point x="651" y="120"/>
      <point x="575" y="107"/>
      <point x="493" y="101" type="curve"/>
      <point x="492" y="154"/>
      <point x="492" y="204"/>
      <point x="492" y="274" type="curve"/>
      <point x="553" y="280"/>
      <point x="642" y="288"/>
      <point x="703" y="289" type="curve"/>
      <point x="684" y="399" type="line"/>
      <point x="615" y="398"/>
      <point x="557" y="395"/>
      <point x="494" y="386" type="curve"/>
      <point x="495" y="442"/>
      <point x="497" y="501"/>
      <point x="499" y="558" type="curve"/>
      <point x="571" y="563"/>
      <point x="650" y="565"/>
      <point x="719" y="565" type="curve"/>
      <point x="719" y="688" type="line"/>
      <point x="637" y="688"/>
      <point x="528" y="683"/>
      <point x="395" y="663" type="curve"/>
      <point x="360" y="692"/>
      <point x="318" y="706"/>
      <point x="275" y="706" type="curve" smooth="yes" name="hr01"/>
      <point x="149" y="706"/>
      <point x="34" y="552"/>
      <point x="34" y="310" type="curve" smooth="yes"/>
      <point x="34" y="65"/>
      <point x="144" y="-34"/>
      <point x="263" y="-34" type="curve" smooth="yes"/>
      <point x="300" y="-34"/>
      <point x="338" y="-18"/>
      <point x="372" y="10" type="curve"/>
      <point x="372" y="5"/>
      <point x="373" y="1"/>
      <point x="373" y="-4" type="curve"/>
      <point x="527" y="-18" type="line" name="hr02"/>
      <point x="620" y="-18"/>
      <point x="682" y="0"/>
      <point x="728" y="21" type="curve"/>
    </contour>
    <contour>
      <point x="167" y="310" type="curve" smooth="yes"/>
      <point x="167" y="479"/>
      <point x="219" y="587"/>
      <point x="275" y="587" type="curve" smooth="yes"/>
      <point x="323" y="587"/>
      <point x="367" y="522"/>
      <point x="367" y="362" type="curve" smooth="yes"/>
      <point x="367" y="192"/>
      <point x="314" y="84"/>
      <point x="263" y="84" type="curve" smooth="yes" name="hr03"/>
      <point x="213" y="84"/>
      <point x="167" y="150"/>
    </contour>
  </outline>
</glyph>
<glyph name="Rcommaaccent" format="1">
  <advance width="525"/>
  <unicode hex="0156"/>
  <outline>
    <contour>
      <point x="198" y="-24" type="line"/>
      <point x="202" y="71"/>
      <point x="205" y="172"/>
      <point x="207" y="265" type="curve"/>
      <point x="294" y="150"/>
      <point x="373" y="45"/>
      <point x="433" y="-45" type="curve"/>
      <point x="529" y="26" type="line"/>
      <point x="470" y="111"/>
      <point x="406" y="198"/>
      <point x="343" y="277" type="curve"/>
      <point x="432" y="335"/>
      <point x="510" y="414"/>
      <point x="510" y="504" type="curve" smooth="yes"/>
      <point x="510" y="646"/>
      <point x="413" y="718"/>
      <point x="303" y="718" type="curve" smooth="yes"/>
      <point x="230" y="718"/>
      <point x="146" y="700"/>
      <point x="74" y="666" type="curve"/>
      <point x="75" y="607"/>
      <point x="75" y="548"/>
      <point x="75" y="489" type="curve" smooth="yes" name="hr01"/>
      <point x="75" y="323"/>
      <point x="71" y="157"/>
      <point x="62" y="-9" type="curve" name="hr02"/>
    </contour>
    <contour>
      <point x="211" y="584" type="curve" name="hr03"/>
      <point x="245" y="596"/>
      <point x="275" y="601"/>
      <point x="303" y="601" type="curve" smooth="yes"/>
      <point x="347" y="601"/>
      <point x="388" y="574"/>
      <point x="388" y="509" type="curve" smooth="yes"/>
      <point x="388" y="459"/>
      <point x="310" y="380"/>
      <point x="210" y="333" type="curve"/>
      <point x="211" y="415"/>
      <point x="211" y="501"/>
    </contour>
    <contour>
      <point x="229" y="-61" type="line"/>
      <point x="224" y="-123"/>
      <point x="216" y="-170"/>
      <point x="202" y="-238" type="curve"/>
      <point x="254" y="-246" type="line"/>
      <point x="296" y="-192"/>
      <point x="331" y="-146"/>
      <point x="342" y="-92" type="curve"/>
    </contour>
  </outline>
</glyph>
<glyph name="rcommaaccent" format="1">
  <advance width="301"/>
  <unicode hex="0157"/>
  <outline>
    <contour>
      <point x="305" y="442" type="line" name="hr00"/>
      <point x="288" y="462"/>
      <point x="262" y="478"/>
      <point x="233" y="478" type="curve" smooth="yes"/>
      <point x="200" y="478"/>
      <point x="164" y="437"/>
      <point x="134" y="373" type="curve"/>
      <point x="128" y="388"/>
      <point x="123" y="404"/>
      <point x="118" y="424" type="curve"/>
      <point x="43" y="432" type="line"/>
      <point x="57" y="356"/>
      <point x="61" y="255"/>
      <point x="61" y="149" type="curve" smooth="yes"/>
      <point x="61" y="84"/>
      <point x="59" y="36"/>
      <point x="58" y="-13" type="curve"/>
      <point x="174" y="-23" type="line"/>
      <point x="177" y="37"/>
      <point x="178" y="93"/>
      <point x="178" y="149" type="curve" smooth="yes"/>
      <point x="178" y="185"/>
      <point x="177" y="220"/>
      <point x="176" y="255" type="curve"/>
      <point x="188" y="317"/>
      <point x="208" y="361"/>
      <point x="239" y="361" type="curve" smooth="yes"/>
      <point x="255" y="361"/>
      <point x="269" y="357"/>
      <point x="279" y="350" type="curve"/>
    </contour>
    <contour>
      <point x="57" y="-61" type="line"/>
      <point x="52" y="-123"/>
      <point x="44" y="-170"/>
      <point x="30" y="-238" type="curve"/>
      <point x="82" y="-246" type="line"/>
      <point x="124" y="-192"/>
      <point x="159" y="-146"/>
      <point x="170" y="-92" type="curve"/>
    </contour>
  </outline>
</glyph>
<glyph name="Scedilla" format="1">
  <advance width="444"/>
  <unicode hex="015E"/>
  <outline>
    <contour>
      <point x="426" y="396" type="line"/>
      <point x="446" y="434"/>
      <point x="452" y="484"/>
      <point x="452" y="509" type="curve" smooth="yes"/>
      <point x="452" y="599"/>
      <point x="373" y="712"/>
      <point x="251" y="712" type="curve" smooth="yes"/>
      <point x="146" y="712"/>
      <point x="47" y="627"/>
      <point x="47" y="501" type="curve" smooth="yes"/>
      <point x="47" y="387"/>
      <point x="129" y="327"/>
      <point x="214" y="268" type="curve" smooth="yes"/>
      <point x="261" y="236"/>
      <point x="308" y="199"/>
      <point x="308" y="148" type="curve" smooth="yes"/>
      <point x="308" y="102"/>
      <point x="271" y="85"/>
      <point x="243" y="85" type="curve" smooth="yes"/>
      <point x="187" y="85"/>
      <point x="139" y="156"/>
      <point x="112" y="228" type="curve"/>
      <point x="15" y="181" type="line"/>
      <point x="49" y="103"/>
      <point x="108" y="-9"/>
      <point x="214" y="-29" type="curve"/>
      <point x="203" y="-59"/>
      <point x="198" y="-90"/>
      <point x="197" y="-129" type="curve"/>
      <point x="225" y="-132" type="line"/>
      <point x="235" y="-127"/>
      <point x="244" y="-125"/>
      <point x="253" y="-125" type="curve" smooth="yes"/>
      <point x="273" y="-125"/>
      <point x="288" y="-137"/>
      <point x="288" y="-153" type="curve" smooth="yes" name="hr01"/>
      <point x="288" y="-172"/>
      <point x="267" y="-181"/>
      <point x="246" y="-181" type="curve" smooth="yes"/>
      <point x="211" y="-181"/>
      <point x="161" y="-160"/>
      <point x="131" y="-144" type="curve"/>
      <point x="113" y="-189" type="line"/>
      <point x="150" y="-217"/>
      <point x="199" y="-232"/>
      <point x="248" y="-232" type="curve" smooth="yes"/>
      <point x="327" y="-232"/>
      <point x="374" y="-201"/>
      <point x="374" y="-139" type="curve" smooth="yes"/>
      <point x="374" y="-90"/>
      <point x="331" y="-62"/>
      <point x="289" y="-62" type="curve" smooth="yes"/>
      <point x="281" y="-62"/>
      <point x="274" y="-63"/>
      <point x="266" y="-65" type="curve"/>
      <point x="261" y="-52"/>
      <point x="259" y="-41"/>
      <point x="258" y="-31" type="curve"/>
      <point x="348" y="-26"/>
      <point x="444" y="42"/>
      <point x="444" y="165" type="curve" smooth="yes" name="hr02"/>
      <point x="444" y="270"/>
      <point x="374" y="314"/>
      <point x="264" y="383" type="curve" smooth="yes"/>
      <point x="216" y="413"/>
      <point x="184" y="454"/>
      <point x="184" y="503" type="curve" smooth="yes"/>
      <point x="184" y="548"/>
      <point x="210" y="595"/>
      <point x="253" y="595" type="curve" smooth="yes"/>
      <point x="286" y="595"/>
      <point x="315" y="567"/>
      <point x="315" y="515" type="curve" smooth="yes"/>
      <point x="315" y="494"/>
      <point x="310" y="467"/>
      <point x="302" y="437" type="curve"/>
    </contour>
  </outline>
</glyph>
<glyph name="Scaron" format="1">
  <advance width="475"/>
  <unicode hex="0160"/>
  <outline>
    <contour>
      <point x="426" y="396" type="line" name="hr00"/>
      <point x="446" y="434"/>
      <point x="452" y="484"/>
      <point x="452" y="509" type="curve" smooth="yes"/>
      <point x="452" y="599"/>
      <point x="373" y="712"/>
      <point x="251" y="712" type="curve" smooth="yes"/>
      <point x="146" y="712"/>
      <point x="47" y="627"/>
      <point x="47" y="501" type="curve" smooth="yes"/>
      <point x="47" y="387"/>
      <point x="129" y="327"/>
      <point x="214" y="268" type="curve" smooth="yes"/>
      <point x="261" y="236"/>
      <point x="308" y="199"/>
      <point x="308" y="148" type="curve" smooth="yes"/>
      <point x="308" y="102"/>
      <point x="271" y="85"/>
      <point x="243" y="85" type="curve" smooth="yes"/>
      <point x="187" y="85"/>
      <point x="139" y="156"/>
      <point x="112" y="228" type="curve"/>
      <point x="15" y="181" type="line"/>
      <point x="53" y="95"/>
      <point x="120" y="-32"/>
      <point x="247" y="-32" type="curve" smooth="yes"/>
      <point x="340" y="-32"/>
      <point x="444" y="37"/>
      <point x="444" y="165" type="curve" smooth="yes"/>
      <point x="444" y="270"/>
      <point x="374" y="314"/>
      <point x="264" y="383" type="curve" smooth="yes"/>
      <point x="216" y="413"/>
      <point x="184" y="454"/>
      <point x="184" y="503" type="curve" smooth="yes"/>
      <point x="184" y="548"/>
      <point x="210" y="595"/>
      <point x="253" y="595" type="curve" smooth="yes"/>
      <point x="286" y="595"/>
      <point x="315" y="567"/>
      <point x="315" y="515" type="curve" smooth="yes"/>
      <point x="315" y="494"/>
      <point x="310" y="467"/>
      <point x="302" y="437" type="curve"/>
    </contour>
    <contour>
      <point x="286" y="770" type="line"/>
      <point x="334" y="812"/>
      <point x="374" y="855"/>
      <point x="414" y="900" type="curve"/>
      <point x="356" y="943" type="line"/>
      <point x="322" y="913"/>
      <point x="289" y="887"/>
      <point x="256" y="864" type="curve"/>
      <point x="230" y="885"/>
      <point x="204" y="908"/>
      <point x="175" y="934" type="curve"/>
      <point x="117" y="890" type="line"/>
      <point x="150" y="850"/>
      <point x="180" y="812"/>
      <point x="218" y="775" type="curve"/>
    </contour>
  </outline>
</glyph>
<glyph name="Ydieresis" format="1">
  <advance width="444"/>
  <unicode hex="0178"/>
  <outline>
    <contour>
      <point x="302" y="-21" type="line" name="hr00"/>
      <point x="299" y="31"/>
      <point x="298" y="83"/>
      <point x="298" y="133" type="curve" smooth="yes"/>
      <point x="298" y="179"/>
      <point x="299" y="229"/>
      <point x="300" y="274" type="curve"/>
      <point x="373" y="427"/>
      <point x="430" y="566"/>
      <point x="478" y="703" type="curve"/>
      <point x="362" y="714" type="line"/>
      <point x="331" y="617"/>
      <point x="288" y="508"/>
      <point x="233" y="387" type="curve"/>
      <point x="185" y="494"/>
      <point x="158" y="569"/>
      <point x="141" y="655" type="curve"/>
      <point x="16" y="667" type="line"/>
      <point x="26" y="579"/>
      <point x="89" y="420"/>
      <point x="161" y="268" type="curve"/>
      <point x="161" y="191" type="line" smooth="yes"/>
      <point x="161" y="120"/>
      <point x="164" y="55"/>
      <point x="170" y="-7" type="curve"/>
    </contour>
    <contour>
      <point x="133" y="908" type="line"/>
      <point x="134" y="890"/>
      <point x="134" y="874"/>
      <point x="134" y="854" type="curve" smooth="yes"/>
      <point x="134" y="831"/>
      <point x="129" y="810"/>
      <point x="125" y="788" type="curve"/>
      <point x="220" y="778" type="line"/>
      <point x="231" y="795"/>
      <point x="234" y="820"/>
      <point x="234" y="843" type="curve" smooth="yes"/>
      <point x="234" y="862"/>
      <point x="234" y="884"/>
      <point x="223" y="900" type="curve"/>
    </contour>
    <contour>
      <point x="288" y="910" type="line"/>
      <point x="289" y="892"/>
      <point x="289" y="876"/>
      <point x="289" y="856" type="curve" smooth="yes"/>
      <point x="289" y="833"/>
      <point x="284" y="812"/>
      <point x="280" y="790" type="curve"/>
      <point x="375" y="780" type="line"/>
      <point x="386" y="797"/>
      <point x="389" y="822"/>
      <point x="389" y="845" type="curve" smooth="yes"/>
      <point x="389" y="864"/>
      <point x="389" y="886"/>
      <point x="378" y="902" type="curve"/>
    </contour>
  </outline>
</glyph>
<glyph name="circumflex" format="1">
  <advance width="500"/>
  <unicode hex="02C6"/>
  <outline>
    <contour>
      <point x="223" y="672" type="line" name="hr00"/>
      <point x="175" y="630"/>
      <point x="135" y="587"/>
      <point x="95" y="542" type="curve"/>
      <point x="153" y="499" type="line"/>
      <point x="187" y="529"/>
      <point x="220" y="555"/>
      <point x="253" y="578" type="curve"/>
      <point x="279" y="557"/>
      <point x="305" y="534"/>
      <point x="334" y="508" type="curve"/>
      <point x="392" y="552" type="line"/>
      <point x="359" y="592"/>
      <point x="329" y="630"/>
      <point x="291" y="667" type="curve"/>
    </contour>
  </outline>
</glyph>
<glyph name="breve" format="1">
  <advance width="500"/>
  <unicode hex="02D8"/>
  <outline>
    <contour>
      <point x="120" y="655" type="line" name="hr00"/>
      <point x="120" y="577"/>
      <point x="166" y="521"/>
      <point x="243" y="521" type="curve" smooth="yes"/>
      <point x="315" y="521"/>
      <point x="381" y="586"/>
      <point x="381" y="655" type="curve"/>
      <point x="306" y="661" type="line"/>
      <point x="306" y="624"/>
      <point x="276" y="593"/>
      <point x="243" y="593" type="curve" smooth="yes"/>
      <point x="213" y="593"/>
      <point x="195" y="618"/>
      <point x="195" y="649" type="curve"/>
    </contour>
  </outline>
</glyph>
<glyph name="dotaccent" format="1">
  <advance width="500"/>
  <unicode hex="02D9"/>
  <outline>
    <contour>
      <point x="194" y="659" type="line" name="hr00"/>
      <point x="195" y="641"/>
      <point x="195" y="625"/>
      <point x="195" y="605" type="curve" smooth="yes"/>
      <point x="195" y="582"/>
      <point x="190" y="561"/>
      <point x="186" y="539" type="curve"/>
      <point x="296" y="529" type="line"/>
      <point x="306" y="546"/>
      <point x="310" y="571"/>
      <point x="310" y="594" type="curve" smooth="yes"/>
      <point x="310" y="613"/>
      <point x="310" y="634"/>
      <point x="299" y="650" type="curve"/>
    </contour>
  </outline>
</glyph>
<glyph name="ogonek" format="1">
  <advance width="500"/>
  <unicode hex="02DB"/>
  <outline>
    <contour>
      <point x="276" y="8" type="line" name="hr00"/>
      <point x="212" y="-29"/>
      <point x="164" y="-77"/>
      <point x="164" y="-131" type="curve" smooth="yes"/>
      <point x="164" y="-193"/>
      <point x="212" y="-228"/>
      <point x="258" y="-228" type="curve" smooth="yes"/>
      <point x="312" y="-228"/>
      <point x="354" y="-188"/>
      <point x="380" y="-150" type="curve"/>
      <point x="334" y="-122" type="line"/>
      <point x="318" y="-138"/>
      <point x="295" y="-153"/>
      <point x="273" y="-153" type="curve" smooth="yes"/>
      <point x="263" y="-153"/>
      <point x="254" y="-145"/>
      <point x="254" y="-131" type="curve" smooth="yes"/>
      <point x="254" y="-80"/>
      <point x="302" y="-32"/>
      <point x="351" y="1" type="curve"/>
    </contour>
  </outline>
</glyph>
<glyph name="hungarumlaut" format="1">
  <advance width="500"/>
  <unicode hex="02DD"/>
  <outline>
    <contour>
      <point x="131" y="515" type="line" name="hr00"/>
      <point x="189" y="568"/>
      <point x="240" y="601"/>
      <point x="294" y="623" type="curve"/>
      <point x="220" y="692" type="line"/>
      <point x="167" y="654"/>
      <point x="122" y="610"/>
      <point x="76" y="562" type="curve"/>
    </contour>
    <contour>
      <point x="320" y="513" type="line"/>
      <point x="384" y="558"/>
      <point x="439" y="584"/>
      <point x="496" y="598" type="curve"/>
      <point x="431" y="677" type="line"/>
      <point x="374" y="646"/>
      <point x="323" y="608"/>
      <point x="272" y="567" type="curve"/>
    </contour>
  </outline>
</glyph>
<glyph name="pi" format="1">
  <advance width="563"/>
  <unicode hex="03C0"/>
  <outline>
    <contour>
      <point x="28" y="449" type="curve"/>
      <point x="50" y="348" type="line"/>
      <point x="77" y="350"/>
      <point x="97" y="353"/>
      <point x="118" y="355" type="curve"/>
      <point x="118" y="230"/>
      <point x="121" y="106"/>
      <point x="129" y="-15" type="curve"/>
      <point x="243" y="-26" type="line"/>
      <point x="235" y="82"/>
      <point x="230" y="192"/>
      <point x="230" y="302" type="curve" smooth="yes" name="hr01"/>
      <point x="230" y="324"/>
      <point x="231" y="346"/>
      <point x="231" y="368" type="curve"/>
      <point x="266" y="372"/>
      <point x="301" y="375"/>
      <point x="336" y="378" type="curve"/>
      <point x="338" y="323"/>
      <point x="339" y="267"/>
      <point x="339" y="211" type="curve" smooth="yes"/>
      <point x="339" y="140"/>
      <point x="337" y="69"/>
      <point x="332" y="-3" type="curve"/>
      <point x="446" y="-14" type="line"/>
      <point x="455" y="61"/>
      <point x="459" y="135"/>
      <point x="459" y="208" type="curve" smooth="yes"/>
      <point x="459" y="268"/>
      <point x="457" y="328"/>
      <point x="452" y="387" type="curve"/>
      <point x="477" y="388"/>
      <point x="503" y="388"/>
      <point x="528" y="388" type="curve"/>
      <point x="509" y="484" type="line"/>
      <point x="509" y="484"/>
      <point x="390" y="481"/>
      <point x="272" y="474" type="curve" smooth="yes"/>
      <point x="151" y="466"/>
      <point x="28" y="449"/>
    </contour>
  </outline>
</glyph>
<glyph name="endash" format="1">
  <advance width="500"/>
  <unicode hex="2013"/>
  <outline>
    <contour>
      <point x="501" y="265" type="line"/>
      <point x="426" y="274"/>
      <point x="339" y="276"/>
      <point x="260" y="276" type="curve" smooth="yes"/>
      <point x="166" y="276"/>
      <point x="84" y="268"/>
      <point x="0" y="268" type="curve"/>
      <point x="0" y="188" type="line"/>
      <point x="95" y="188"/>
      <point x="178" y="196"/>
      <point x="270" y="196" type="curve" smooth="yes"/>
      <point x="348" y="196"/>
      <point x="417" y="194"/>
      <point x="483" y="185" type="curve" name="hr01"/>
    </contour>
  </outline>
</glyph>
<glyph name="quotedblleft" format="1">
  <advance width="390"/>
  <unicode hex="201C"/>
  <outline>
    <contour>
      <point x="85" y="716" type="line" name="hr00"/>
      <point x="76" y="616"/>
      <point x="62" y="549"/>
      <point x="32" y="458" type="curve"/>
      <point x="150" y="422" type="line"/>
      <point x="169" y="526"/>
      <point x="181" y="599"/>
      <point x="187" y="704" type="curve"/>
    </contour>
    <contour>
      <point x="267" y="716" type="line"/>
      <point x="258" y="616"/>
      <point x="244" y="549"/>
      <point x="214" y="458" type="curve"/>
      <point x="332" y="422" type="line"/>
      <point x="351" y="526"/>
      <point x="363" y="599"/>
      <point x="369" y="704" type="curve"/>
    </contour>
  </outline>
</glyph>
<glyph name="quotedblright" format="1">
  <advance width="390"/>
  <unicode hex="201D"/>
  <outline>
    <contour>
      <point x="142" y="432" type="line" name="hr00"/>
      <point x="151" y="532"/>
      <point x="165" y="599"/>
      <point x="195" y="690" type="curve"/>
      <point x="77" y="726" type="line"/>
      <point x="58" y="622"/>
      <point x="46" y="549"/>
      <point x="40" y="444" type="curve"/>
    </contour>
    <contour>
      <point x="323" y="432" type="line"/>
      <point x="332" y="532"/>
      <point x="346" y="599"/>
      <point x="376" y="690" type="curve"/>
      <point x="258" y="726" type="line"/>
      <point x="239" y="622"/>
      <point x="227" y="549"/>
      <point x="221" y="444" type="curve"/>
    </contour>
  </outline>
</glyph>
<glyph name="dagger" format="1">
  <advance width="520"/>
  <unicode hex="2020"/>
  <outline>
    <contour>
      <point x="467" y="490" type="line"/>
      <point x="419" y="494"/>
      <point x="372" y="496"/>
      <point x="318" y="497" type="curve"/>
      <point x="319" y="567"/>
      <point x="322" y="634"/>
      <point x="328" y="698" type="curve"/>
      <point x="188" y="711" type="line"/>
      <point x="182" y="645"/>
      <point x="179" y="572"/>
      <point x="177" y="496" type="curve"/>
      <point x="131" y="494"/>
      <point x="84" y="489"/>
      <point x="38" y="489" type="curve"/>
      <point x="50" y="381" type="line"/>
      <point x="91" y="381"/>
      <point x="134" y="385"/>
      <point x="176" y="388" type="curve"/>
      <point x="176" y="323" type="line" smooth="yes"/>
      <point x="176" y="173"/>
      <point x="178" y="23"/>
      <point x="189" y="-119" type="curve" name="hr01"/>
      <point x="327" y="-132" type="line"/>
      <point x="316" y="16"/>
      <point x="316" y="167"/>
      <point x="316" y="323" type="curve" smooth="yes"/>
      <point x="316" y="389" type="line"/>
      <point x="368" y="388"/>
      <point x="423" y="386"/>
      <point x="471" y="382" type="curve"/>
    </contour>
  </outline>
</glyph>
<glyph name="daggerdbl" format="1">
  <advance width="520"/>
  <unicode hex="2021"/>
  <outline>
    <contour>
      <point x="467" y="220" type="line"/>
      <point x="419" y="224"/>
      <point x="370" y="226"/>
      <point x="316" y="227" type="curve"/>
      <point x="316" y="389" type="line"/>
      <point x="368" y="388"/>
      <point x="423" y="386"/>
      <point x="471" y="382" type="curve"/>
      <point x="467" y="490" type="line"/>
      <point x="419" y="494"/>
      <point x="372" y="496"/>
      <point x="318" y="497" type="curve"/>
      <point x="319" y="567"/>
      <point x="322" y="634"/>
      <point x="328" y="698" type="curve"/>
      <point x="188" y="711" type="line"/>
      <point x="182" y="645"/>
      <point x="179" y="572"/>
      <point x="177" y="496" type="curve"/>
      <point x="131" y="494"/>
      <point x="84" y="489"/>
      <point x="38" y="489" type="curve"/>
      <point x="50" y="381" type="line"/>
      <point x="91" y="381"/>
      <point x="135" y="385"/>
      <point x="177" y="388" type="curve"/>
      <point x="176" y="346"/>
      <point x="176" y="299"/>
      <point x="176" y="263" type="curve" smooth="yes"/>
      <point x="176" y="226" type="line"/>
      <point x="130" y="224"/>
      <point x="84" y="219"/>
      <point x="38" y="219" type="curve"/>
      <point x="50" y="111" type="line"/>
      <point x="92" y="111"/>
      <point x="136" y="115"/>
      <point x="178" y="118" type="curve"/>
      <point x="180" y="37"/>
      <point x="183" y="-42"/>
      <point x="189" y="-119" type="curve" name="hr01"/>
      <point x="327" y="-132" type="line"/>
      <point x="321" y="-49"/>
      <point x="318" y="34"/>
      <point x="317" y="119" type="curve"/>
      <point x="369" y="118"/>
      <point x="424" y="116"/>
      <point x="471" y="112" type="curve"/>
    </contour>
  </outline>
</glyph>
<glyph name="ellipsis" format="1">
  <advance width="930"/>
  <unicode hex="2026"/>
  <outline>
    <contour>
      <point x="95" y="171" type="line" name="hr00"/>
      <point x="96" y="147"/>
      <point x="96" y="121"/>
      <point x="96" y="96" type="curve" smooth="yes"/>
      <point x="96" y="59"/>
      <point x="91" y="24"/>
      <point x="87" y="-10" type="curve"/>
      <point x="222" y="-21" type="line"/>
      <point x="233" y="7"/>
      <point x="236" y="46"/>
      <point x="236" y="85" type="curve" smooth="yes"/>
      <point x="236" y="111"/>
      <point x="232" y="137"/>
      <point x="225" y="159" type="curve"/>
    </contour>
    <contour>
      <point x="398" y="171" type="line"/>
      <point x="399" y="147"/>
      <point x="399" y="121"/>
      <point x="399" y="96" type="curve" smooth="yes"/>
      <point x="399" y="59"/>
      <point x="394" y="24"/>
      <point x="390" y="-10" type="curve"/>
      <point x="525" y="-21" type="line"/>
      <point x="536" y="7"/>
      <point x="539" y="46"/>
      <point x="539" y="85" type="curve" smooth="yes"/>
      <point x="539" y="111"/>
      <point x="535" y="137"/>
      <point x="528" y="159" type="curve"/>
    </contour>
    <contour>
      <point x="702" y="171" type="line"/>
      <point x="703" y="147"/>
      <point x="703" y="121"/>
      <point x="703" y="96" type="curve" smooth="yes"/>
      <point x="703" y="59"/>
      <point x="698" y="24"/>
      <point x="694" y="-10" type="curve"/>
      <point x="829" y="-21" type="line"/>
      <point x="840" y="7"/>
      <point x="843" y="46"/>
      <point x="843" y="85" type="curve" smooth="yes"/>
      <point x="843" y="111"/>
      <point x="839" y="137"/>
      <point x="832" y="159" type="curve"/>
    </contour>
  </outline>
</glyph>
<glyph name="guilsinglright" format="1">
  <advance width="277"/>
  <unicode hex="203A"/>
  <outline>
    <contour>
      <point x="128" y="4" type="line" name="hr00"/>
      <point x="155" y="68"/>
      <point x="200" y="144"/>
      <point x="245" y="207" type="curve"/>
      <point x="205" y="295"/>
      <point x="161" y="371"/>
      <point x="114" y="425" type="curve"/>
      <point x="18" y="384" type="line"/>
      <point x="54" y="338"/>
      <point x="89" y="275"/>
      <point x="117" y="211" type="curve"/>
      <point x="79" y="151"/>
      <point x="48" y="92"/>
      <point x="23" y="29" type="curve"/>
    </contour>
  </outline>
</glyph>
<glyph name="fraction" format="1">
  <advance width="546"/>
  <unicode hex="2044"/>
  <outline>
    <contour>
      <point x="91" y="-23" type="line" name="hr00"/>
      <point x="233" y="228"/>
      <point x="365" y="440"/>
      <point x="532" y="626" type="curve"/>
      <point x="468" y="666" type="line"/>
      <point x="305" y="487"/>
      <point x="158" y="257"/>
      <point x="14" y="6" type="curve"/>
    </contour>
  </outline>
</glyph>
<glyph name="Euro" format="1">
  <advance width="484"/>
  <unicode hex="20AC"/>
  <outline>
    <contour>
      <point x="15" y="314" type="line" name="hr00"/>
      <point x="48" y="320" type="line"/>
      <point x="45" y="279" type="line"/>
      <point x="3" y="275" type="line"/>
      <point x="15" y="207" type="line"/>
      <point x="45" y="211" type="line"/>
      <point x="54" y="81"/>
      <point x="122" y="-18"/>
      <point x="248" y="-18" type="curve" smooth="yes"/>
      <point x="358" y="-18"/>
      <point x="410" y="80"/>
      <point x="437" y="182" type="curve"/>
      <point x="327" y="193" type="line"/>
      <point x="313" y="139"/>
      <point x="294" y="82"/>
      <point x="248" y="82" type="curve" smooth="yes"/>
      <point x="196" y="82"/>
      <point x="171" y="137"/>
      <point x="166" y="220" type="curve"/>
      <point x="245" y="224"/>
      <point x="327" y="224"/>
      <point x="394" y="224" type="curve"/>
      <point x="390" y="299" type="line"/>
      <point x="308" y="299"/>
      <point x="236" y="295"/>
      <point x="167" y="290" type="curve"/>
      <point x="168" y="304"/>
      <point x="170" y="319"/>
      <point x="172" y="334" type="curve"/>
      <point x="249" y="339"/>
      <point x="328" y="341"/>
      <point x="394" y="341" type="curve"/>
      <point x="390" y="416" type="line"/>
      <point x="317" y="416"/>
      <point x="250" y="412"/>
      <point x="187" y="406" type="curve"/>
      <point x="206" y="478"/>
      <point x="237" y="543"/>
      <point x="274" y="543" type="curve" smooth="yes"/>
      <point x="326" y="543"/>
      <point x="330" y="491"/>
      <point x="330" y="456" type="curve"/>
      <point x="443" y="445" type="line"/>
      <point x="440" y="534"/>
      <point x="393" y="643"/>
      <point x="272" y="643" type="curve" smooth="yes"/>
      <point x="155" y="643"/>
      <point x="89" y="518"/>
      <point x="61" y="390" type="curve"/>
      <point x="3" y="382" type="line"/>
    </contour>
  </outline>
</glyph>
<glyph name="trademark" format="1">
  <advance width="718"/>
  <unicode hex="2122"/>
  <outline>
    <contour>
      <point x="233" y="428" type="line" name="hr00"/>
      <point x="231" y="472"/>
      <point x="231" y="518"/>
      <point x="231" y="565" type="curve" smooth="yes"/>
      <point x="231" y="594"/>
      <point x="231" y="618"/>
      <point x="233" y="648" type="curve"/>
      <point x="260" y="652"/>
      <point x="282" y="652"/>
      <point x="282" y="652" type="curve"/>
      <point x="274" y="716" type="line"/>
      <point x="274" y="716"/>
      <point x="231" y="715"/>
      <point x="186" y="712" type="curve" smooth="yes"/>
      <point x="139" y="709"/>
      <point x="94" y="702"/>
      <point x="94" y="702" type="curve"/>
      <point x="103" y="636" type="line"/>
      <point x="103" y="636"/>
      <point x="124" y="640"/>
      <point x="150" y="644" type="curve"/>
      <point x="149" y="606"/>
      <point x="149" y="592"/>
      <point x="149" y="565" type="curve" smooth="yes"/>
      <point x="149" y="520"/>
      <point x="150" y="474"/>
      <point x="152" y="432" type="curve"/>
    </contour>
    <contour>
      <point x="550" y="619" type="line"/>
      <point x="549" y="556"/>
      <point x="548" y="489"/>
      <point x="542" y="428" type="curve"/>
      <point x="621" y="421" type="line"/>
      <point x="624" y="464"/>
      <point x="624" y="513"/>
      <point x="624" y="560" type="curve" smooth="yes"/>
      <point x="624" y="610"/>
      <point x="622" y="654"/>
      <point x="622" y="699" type="curve"/>
      <point x="496" y="709" type="line"/>
      <point x="489" y="661"/>
      <point x="482" y="618"/>
      <point x="471" y="572" type="curve"/>
      <point x="467" y="617"/>
      <point x="463" y="655"/>
      <point x="458" y="691" type="curve"/>
      <point x="333" y="699" type="line"/>
      <point x="328" y="654"/>
      <point x="327" y="613"/>
      <point x="327" y="572" type="curve" smooth="yes"/>
      <point x="327" y="528"/>
      <point x="328" y="484"/>
      <point x="329" y="432" type="curve"/>
      <point x="407" y="426" type="line"/>
      <point x="407" y="498"/>
      <point x="398" y="558"/>
      <point x="398" y="625" type="curve"/>
      <point x="402" y="624" type="line"/>
      <point x="412" y="562"/>
      <point x="417" y="520"/>
      <point x="428" y="459" type="curve"/>
      <point x="514" y="452" type="line"/>
      <point x="528" y="518"/>
      <point x="536" y="569"/>
      <point x="546" y="619" type="curve"/>
    </contour>
  </outline>
</glyph>
<glyph name="partialdiff" format="1">
  <advance width="429"/>
  <unicode hex="2202"/>
  <outline>
    <contour>
      <point x="219" y="487" type="curve" smooth="yes" name="hr00"/>
      <point x="94" y="487"/>
      <point x="30" y="319"/>
      <point x="30" y="205" type="curve" smooth="yes"/>
      <point x="30" y="89"/>
      <point x="63" y="2"/>
      <point x="197" y="2" type="curve" smooth="yes"/>
      <point x="343" y="2"/>
      <point x="399" y="186"/>
      <point x="399" y="304" type="curve" smooth="yes"/>
      <point x="398" y="499"/>
      <point x="318" y="696"/>
      <point x="178" y="696" type="curve" smooth="yes"/>
      <point x="129" y="696"/>
      <point x="85" y="667"/>
      <point x="38" y="627" type="curve"/>
      <point x="100" y="547" type="line"/>
      <point x="123" y="563"/>
      <point x="143" y="576"/>
      <point x="158" y="576" type="curve" smooth="yes"/>
      <point x="202" y="576"/>
      <point x="234" y="539"/>
      <point x="255" y="485" type="curve"/>
      <point x="244" y="486"/>
      <point x="232" y="487"/>
    </contour>
    <contour>
      <point x="211" y="110" type="curve" smooth="yes"/>
      <point x="160" y="110"/>
      <point x="147" y="150"/>
      <point x="147" y="205" type="curve" smooth="yes"/>
      <point x="147" y="275"/>
      <point x="176" y="379"/>
      <point x="218" y="379" type="curve" smooth="yes"/>
      <point x="269" y="379"/>
      <point x="282" y="347"/>
      <point x="282" y="304" type="curve" smooth="yes"/>
      <point x="282" y="226"/>
      <point x="253" y="110"/>
    </contour>
  </outline>
</glyph>
<glyph name="product" format="1">
  <advance width="558"/>
  <unicode hex="220F"/>
  <outline>
    <contour>
      <point x="367" y="-1" type="curve" name="hr00"/>
      <point x="504" y="-14" type="line"/>
      <point x="513" y="97"/>
      <point x="513" y="208"/>
      <point x="513" y="325" type="curve" smooth="yes"/>
      <point x="513" y="461"/>
      <point x="508" y="577"/>
      <point x="505" y="699" type="curve"/>
      <point x="355" y="712" type="line"/>
      <point x="328" y="710"/>
      <point x="294" y="708"/>
      <point x="261" y="705" type="curve" smooth="yes"/>
      <point x="165" y="697"/>
      <point x="67" y="680"/>
      <point x="67" y="680" type="curve"/>
      <point x="53" y="553"/>
      <point x="48" y="450"/>
      <point x="48" y="345" type="curve" smooth="yes"/>
      <point x="48" y="235"/>
      <point x="52" y="124"/>
      <point x="56" y="-6" type="curve"/>
      <point x="188" y="-18" type="line"/>
      <point x="185" y="107"/>
      <point x="184" y="220"/>
      <point x="184" y="329" type="curve" smooth="yes"/>
      <point x="184" y="414"/>
      <point x="185" y="496"/>
      <point x="186" y="580" type="curve"/>
      <point x="248" y="589"/>
      <point x="309" y="596"/>
      <point x="374" y="600" type="curve"/>
      <point x="377" y="511"/>
      <point x="377" y="405"/>
      <point x="377" y="319" type="curve" smooth="yes"/>
      <point x="377" y="205"/>
      <point x="374" y="104"/>
    </contour>
  </outline>
</glyph>
<glyph name="minus" format="1">
  <advance width="833"/>
  <unicode hex="2212"/>
  <outline>
    <contour>
      <point x="720" y="352" type="line"/>
      <point x="645" y="361"/>
      <point x="558" y="363"/>
      <point x="479" y="363" type="curve" smooth="yes"/>
      <point x="347" y="363"/>
      <point x="235" y="355"/>
      <point x="123" y="355" type="curve"/>
      <point x="123" y="235" type="line"/>
      <point x="248" y="236"/>
      <point x="369" y="243"/>
      <point x="489" y="243" type="curve" smooth="yes"/>
      <point x="567" y="243"/>
      <point x="636" y="241"/>
      <point x="702" y="232" type="curve" name="hr01"/>
    </contour>
  </outline>
</glyph>
<glyph name="radical" format="1">
  <advance width="584"/>
  <unicode hex="221A"/>
  <outline>
    <contour>
      <point x="255" y="-16" type="line" name="hr00"/>
      <point x="338" y="253"/>
      <point x="385" y="449"/>
      <point x="423" y="632" type="curve"/>
      <point x="460" y="636"/>
      <point x="497" y="639"/>
      <point x="537" y="639" type="curve"/>
      <point x="518" y="735" type="line"/>
      <point x="466" y="735"/>
      <point x="389" y="730"/>
      <point x="332" y="723" type="curve"/>
      <point x="289" y="500"/>
      <point x="251" y="310"/>
      <point x="198" y="123" type="curve"/>
      <point x="176" y="229"/>
      <point x="162" y="332"/>
      <point x="151" y="453" type="curve"/>
      <point x="37" y="463" type="line"/>
      <point x="49" y="338"/>
      <point x="80" y="186"/>
      <point x="127" y="-4" type="curve"/>
    </contour>
  </outline>
</glyph>
<glyph name="infinity" format="1">
  <advance width="833"/>
  <unicode hex="221E"/>
  <outline>
    <contour>
      <point x="565" y="502" type="curve" smooth="yes"/>
      <point x="499" y="502"/>
      <point x="448" y="464"/>
      <point x="411" y="422" type="curve"/>
      <point x="379" y="458"/>
      <point x="337" y="487"/>
      <point x="275" y="487" type="curve" smooth="yes" name="hr01"/>
      <point x="168" y="487"/>
      <point x="75" y="389"/>
      <point x="75" y="289" type="curve" smooth="yes"/>
      <point x="75" y="160"/>
      <point x="184" y="102"/>
      <point x="251" y="102" type="curve" smooth="yes"/>
      <point x="317" y="102"/>
      <point x="373" y="141"/>
      <point x="413" y="195" type="curve"/>
      <point x="441" y="144"/>
      <point x="491" y="103"/>
      <point x="558" y="103" type="curve" smooth="yes" name="hr02"/>
      <point x="647" y="103"/>
      <point x="749" y="190"/>
      <point x="749" y="301" type="curve" smooth="yes"/>
      <point x="749" y="408"/>
      <point x="676" y="502"/>
    </contour>
    <contour>
      <point x="568" y="382" type="curve" smooth="yes"/>
      <point x="616" y="382"/>
      <point x="639" y="341"/>
      <point x="639" y="304" type="curve" smooth="yes"/>
      <point x="639" y="261"/>
      <point x="610" y="223"/>
      <point x="565" y="223" type="curve" smooth="yes" name="hr03"/>
      <point x="527" y="223"/>
      <point x="499" y="261"/>
      <point x="481" y="296" type="curve"/>
      <point x="500" y="334"/>
      <point x="524" y="382"/>
    </contour>
    <contour>
      <point x="265" y="367" type="curve" smooth="yes" name="hr04"/>
      <point x="291" y="367"/>
      <point x="330" y="340"/>
      <point x="346" y="308" type="curve"/>
      <point x="321" y="264"/>
      <point x="293" y="222"/>
      <point x="251" y="222" type="curve" smooth="yes"/>
      <point x="230" y="222"/>
      <point x="185" y="244"/>
      <point x="185" y="289" type="curve" smooth="yes"/>
      <point x="185" y="331"/>
      <point x="219" y="367"/>
    </contour>
  </outline>
</glyph>
<glyph name="approxequal" format="1">
  <advance width="833"/>
  <unicode hex="2248"/>
  <outline>
    <contour>
      <point x="197" y="307" type="line"/>
      <point x="207" y="344"/>
      <point x="242" y="378"/>
      <point x="278" y="378" type="curve" smooth="yes"/>
      <point x="361" y="378"/>
      <point x="422" y="328"/>
      <point x="538" y="328" type="curve" smooth="yes" name="hr01"/>
      <point x="651" y="328"/>
      <point x="729" y="394"/>
      <point x="748" y="504" type="curve"/>
      <point x="660" y="511" type="line"/>
      <point x="629" y="477"/>
      <point x="581" y="454"/>
      <point x="520" y="454" type="curve" smooth="yes"/>
      <point x="440" y="454"/>
      <point x="373" y="496"/>
      <point x="271" y="496" type="curve" smooth="yes" name="hr02"/>
      <point x="179" y="496"/>
      <point x="100" y="398"/>
      <point x="85" y="318" type="curve"/>
    </contour>
    <contour>
      <point x="197" y="95" type="line"/>
      <point x="207" y="132"/>
      <point x="242" y="166"/>
      <point x="278" y="166" type="curve" smooth="yes"/>
      <point x="361" y="166"/>
      <point x="422" y="116"/>
      <point x="538" y="116" type="curve" smooth="yes"/>
      <point x="651" y="116"/>
      <point x="729" y="182"/>
      <point x="748" y="292" type="curve"/>
      <point x="660" y="299" type="line"/>
      <point x="629" y="265"/>
      <point x="581" y="242"/>
      <point x="520" y="242" type="curve" smooth="yes"/>
      <point x="440" y="242"/>
      <point x="373" y="284"/>
      <point x="271" y="284" type="curve" smooth="yes" name="hr03"/>
      <point x="179" y="284"/>
      <point x="100" y="186"/>
      <point x="85" y="106" type="curve"/>
    </contour>
  </outline>
</glyph>
<glyph name="notequal" format="1">
  <advance width="833"/>
  <unicode hex="2260"/>
  <outline>
    <contour>
      <point x="720" y="242" type="line" name="hr00"/>
      <point x="645" y="251"/>
      <point x="558" y="253"/>
      <point x="479" y="253" type="curve" smooth="yes"/>
      <point x="457" y="253" type="line"/>
      <point x="514" y="352" type="line"/>
      <point x="582" y="351"/>
      <point x="643" y="349"/>
      <point x="702" y="341" type="curve"/>
      <point x="720" y="461" type="line"/>
      <point x="678" y="466"/>
      <point x="633" y="469"/>
      <point x="588" y="470" type="curve"/>
      <point x="611" y="504"/>
      <point x="634" y="536"/>
      <point x="659" y="567" type="curve"/>
      <point x="564" y="632" type="line"/>
      <point x="526" y="583"/>
      <point x="489" y="528"/>
      <point x="453" y="472" type="curve"/>
      <point x="332" y="471"/>
      <point x="227" y="464"/>
      <point x="123" y="464" type="curve"/>
      <point x="123" y="344" type="line"/>
      <point x="210" y="344"/>
      <point x="296" y="348"/>
      <point x="380" y="350" type="curve"/>
      <point x="324" y="250" type="line"/>
      <point x="254" y="247"/>
      <point x="188" y="245"/>
      <point x="123" y="245" type="curve"/>
      <point x="123" y="125" type="line"/>
      <point x="168" y="125"/>
      <point x="213" y="126"/>
      <point x="257" y="127" type="curve"/>
      <point x="204" y="28" type="line"/>
      <point x="299" y="-24" type="line"/>
      <point x="330" y="27"/>
      <point x="360" y="79"/>
      <point x="390" y="132" type="curve"/>
      <point x="423" y="133"/>
      <point x="456" y="133"/>
      <point x="489" y="133" type="curve" smooth="yes"/>
      <point x="567" y="133"/>
      <point x="636" y="131"/>
      <point x="702" y="122" type="curve"/>
    </contour>
  </outline>
</glyph>
<glyph name="acute.cap" format="1">
  <advance width="348"/>
  <unicode hex="E000"/>
  <outline>
    <contour>
      <point x="100" y="766" type="line" name="hr00"/>
      <point x="168" y="801"/>
      <point x="230" y="824"/>
      <point x="293" y="839" type="curve"/>
      <point x="239" y="928" type="line"/>
      <point x="170" y="898"/>
      <point x="113" y="861"/>
      <point x="55" y="823" type="curve"/>
    </contour>
  </outline>
</glyph>
<glyph name="dieresis.cap" format="1">
  <advance width="374"/>
  <unicode hex="E000"/>
  <outline>
    <contour>
      <point x="63" y="908" type="line" name="hr00"/>
      <point x="64" y="890"/>
      <point x="64" y="874"/>
      <point x="64" y="854" type="curve" smooth="yes"/>
      <point x="64" y="831"/>
      <point x="59" y="810"/>
      <point x="55" y="788" type="curve"/>
      <point x="150" y="778" type="line"/>
      <point x="161" y="795"/>
      <point x="164" y="820"/>
      <point x="164" y="843" type="curve" smooth="yes"/>
      <point x="164" y="862"/>
      <point x="164" y="884"/>
      <point x="153" y="900" type="curve"/>
    </contour>
    <contour>
      <point x="218" y="910" type="line"/>
      <point x="219" y="892"/>
      <point x="219" y="876"/>
      <point x="219" y="856" type="curve" smooth="yes"/>
      <point x="219" y="833"/>
      <point x="214" y="812"/>
      <point x="210" y="790" type="curve"/>
      <point x="305" y="780" type="line"/>
      <point x="316" y="797"/>
      <point x="319" y="822"/>
      <point x="319" y="845" type="curve" smooth="yes"/>
      <point x="319" y="864"/>
      <point x="319" y="886"/>
      <point x="308" y="902" type="curve"/>
    </contour>
  </outline>
</glyph>
<glyph name="dotaccentcmb.cap" format="1">
  <advance width="234"/>
  <unicode hex="E000"/>
  <outline>
    <contour>
      <point x="63" y="910" type="line" name="hr00"/>
      <point x="64" y="892"/>
      <point x="64" y="876"/>
      <point x="64" y="856" type="curve" smooth="yes"/>
      <point x="64" y="833"/>
      <point x="59" y="812"/>
      <point x="55" y="790" type="curve"/>
      <point x="165" y="780" type="line"/>
      <point x="175" y="797"/>
      <point x="179" y="822"/>
      <point x="179" y="845" type="curve" smooth="yes"/>
      <point x="179" y="864"/>
      <point x="179" y="885"/>
      <point x="168" y="901" type="curve"/>
    </contour>
  </outline>
</glyph>
<glyph name="middot" format="1">
  <advance width="260"/>
  <unicode hex="E000"/>
  <outline>
    <contour>
      <point x="53" y="421" type="line" name="hr00"/>
      <point x="54" y="394"/>
      <point x="54" y="364"/>
      <point x="54" y="336" type="curve" smooth="yes"/>
      <point x="54" y="297"/>
      <point x="49" y="261"/>
      <point x="45" y="225" type="curve"/>
      <point x="190" y="214" type="line"/>
      <point x="201" y="243"/>
      <point x="204" y="284"/>
      <point x="204" y="325" type="curve" smooth="yes"/>
      <point x="204" y="355"/>
      <point x="200" y="384"/>
      <point x="193" y="409" type="curve"/>
    </contour>
  </outline>
</glyph>
<glyph name="ring.cap" format="1">
  <advance width="343"/>
  <unicode hex="E000"/>
  <outline>
    <contour>
      <point x="163" y="783" type="curve" smooth="yes" name="hr00"/>
      <point x="141" y="783"/>
      <point x="124" y="798"/>
      <point x="124" y="826" type="curve" smooth="yes"/>
      <point x="124" y="855"/>
      <point x="143" y="888"/>
      <point x="177" y="888" type="curve" smooth="yes"/>
      <point x="199" y="888"/>
      <point x="216" y="874"/>
      <point x="216" y="846" type="curve" smooth="yes"/>
      <point x="216" y="817"/>
      <point x="197" y="783"/>
    </contour>
    <contour>
      <point x="161" y="728" type="curve" smooth="yes"/>
      <point x="239" y="728"/>
      <point x="286" y="791"/>
      <point x="286" y="848" type="curve" smooth="yes"/>
      <point x="286" y="905"/>
      <point x="240" y="943"/>
      <point x="179" y="943" type="curve" smooth="yes"/>
      <point x="102" y="943"/>
      <point x="54" y="881"/>
      <point x="54" y="823" type="curve" smooth="yes"/>
      <point x="54" y="767"/>
      <point x="100" y="728"/>
    </contour>
  </outline>
</glyph>
<glyph name="fl" format="1">
  <advance width="516"/>
  <unicode hex="FB02"/>
  <outline>
    <contour>
      <point x="200" y="-17" type="line"/>
      <point x="197" y="28"/>
      <point x="195" y="71"/>
      <point x="194" y="106" type="curve" smooth="yes"/>
      <point x="191" y="180"/>
      <point x="189" y="241"/>
      <point x="189" y="323" type="curve"/>
      <point x="228" y="328"/>
      <point x="266" y="328"/>
      <point x="297" y="328" type="curve" name="hr01"/>
      <point x="297" y="421" type="line"/>
      <point x="265" y="421"/>
      <point x="228" y="420"/>
      <point x="188" y="417" type="curve" name="hr02"/>
      <point x="188" y="445" type="line" smooth="yes"/>
      <point x="188" y="561"/>
      <point x="220" y="629"/>
      <point x="268" y="629" type="curve" smooth="yes"/>
      <point x="305" y="629"/>
      <point x="333" y="594"/>
      <point x="348" y="539" type="curve"/>
      <point x="345" y="440"/>
      <point x="344" y="336"/>
      <point x="344" y="235" type="curve" smooth="yes"/>
      <point x="344" y="154"/>
      <point x="345" y="70"/>
      <point x="348" y="-8" type="curve"/>
      <point x="466" y="-19" type="line"/>
      <point x="461" y="63"/>
      <point x="461" y="150"/>
      <point x="461" y="235" type="curve" smooth="yes"/>
      <point x="461" y="405"/>
      <point x="467" y="569"/>
      <point x="476" y="721" type="curve" name="hr03"/>
      <point x="379" y="729" type="line"/>
      <point x="376" y="679" type="line"/>
      <point x="348" y="714"/>
      <point x="312" y="735"/>
      <point x="268" y="735" type="curve" smooth="yes"/>
      <point x="151" y="735"/>
      <point x="71" y="627"/>
      <point x="71" y="445" type="curve" smooth="yes"/>
      <point x="71" y="401" type="line"/>
      <point x="49" y="397"/>
      <point x="30" y="394"/>
      <point x="15" y="390" type="curve"/>
      <point x="36" y="300" type="line"/>
      <point x="46" y="303"/>
      <point x="59" y="305"/>
      <point x="72" y="307" type="curve"/>
      <point x="73" y="231"/>
      <point x="75" y="171"/>
      <point x="77" y="102" type="curve" smooth="yes" name="hr04"/>
      <point x="78" y="70"/>
      <point x="81" y="36"/>
      <point x="83" y="-5" type="curve"/>
    </contour>
  </outline>
</glyph>
